<?xml version="1.0" encoding="UTF-8" standalone="no"?>
<svg
   xmlns:dc="http://purl.org/dc/elements/1.1/"
   xmlns:cc="http://creativecommons.org/ns#"
   xmlns:rdf="http://www.w3.org/1999/02/22-rdf-syntax-ns#"
   xmlns:svg="http://www.w3.org/2000/svg"
   xmlns="http://www.w3.org/2000/svg"
   viewBox="0 0 1066.6667 1066.6667"
   height="1066.6667"
   width="1066.6667"
   xml:space="preserve"
   id="svg2"
   version="1.1"><metadata
     id="metadata8"><rdf:RDF><cc:Work
         rdf:about=""><dc:format>image/svg+xml</dc:format><dc:type
           rdf:resource="http://purl.org/dc/dcmitype/StillImage" /></cc:Work></rdf:RDF></metadata><defs
     id="defs6" /><g
     transform="matrix(1.3333333,0,0,-1.3333333,0,1066.6667)"
     id="g10"><g
       transform="scale(0.1)"
       id="g12"><path
         id="path14"
         style="fill:#ffffff;fill-opacity:0;fill-rule:nonzero;stroke:none"
         d="M 0,0 H 8000 V 8000 H 0 Z" /><path
         id="path16"
         style="fill:#8c5620;fill-opacity:1;fill-rule:nonzero;stroke:none"
         d="m 2060,6870 v -660 c 0,-165.68 376.08,-300 840,-300 463.92,0 840,134.31 840,300 v 660 H 2060" /><path
         id="path18"
         style="fill:#a37747;fill-opacity:1;fill-rule:nonzero;stroke:none"
         d="m 2900,7200 c -463.92,0 -840,-147.75 -840,-330 0,-101.46 116.64,-192.18 300,-252.71 l 60,-185.25 c 309.48,-116.05 650.52,-116.05 960,0 l 60,185.25 c 183.36,60.53 300,151.25 300,252.71 0,182.25 -376.08,330 -840,330" /><path
         id="path20"
         style="fill:#8c5620;fill-opacity:1;fill-rule:nonzero;stroke:none"
         d="m 3530,6870 c 0,107.7 -282.06,195 -630,195 -347.94,0 -630,-87.3 -630,-195 0,-62.31 94.76,-117.66 241.73,-153.36 l 52.59,-177.93 c 109.19,-30.97 221.89,-46.67 335.68,-46.67 113.77,0 226.47,15.67 335.68,46.67 l 52.59,177.93 c 146.97,35.7 241.73,91.05 241.73,153.36" /><path
         id="path22"
         style="fill:#ffffff;fill-opacity:1;fill-rule:nonzero;stroke:none"
         d="m 3204.49,6139.1 c -7.82,5.51 -7.82,16.29 0,21.8 15.43,10.86 25.51,28.8 25.51,49.1 0,33.14 -26.86,60 -60,60 -33.14,0 -60,-26.86 -60,-60 h -420 c 0,33.14 -26.86,60 -60,60 -33.14,0 -60,-26.86 -60,-60 0,-20.3 10.08,-38.24 25.51,-49.1 7.82,-5.51 7.82,-16.29 0,-21.8 -15.43,-10.86 -25.51,-28.8 -25.51,-49.1 0,-33.14 26.86,-60 60,-60 33.14,0 60,26.86 60,60 h 420 c 0,-33.14 26.86,-60 60,-60 33.14,0 60,26.86 60,60 0,20.3 -10.08,38.24 -25.51,49.1" /><path
         id="path24"
         style="fill:#8c5620;fill-opacity:1;fill-rule:nonzero;stroke:none"
         d="m 5712.3,274.359 466.69,466.692 c 117.16,117.16 -53.79,478.059 -381.83,806.109 -328.05,328.04 -688.95,498.99 -806.11,381.83 L 4524.36,1462.3 5712.3,274.359" /><path
         id="path26"
         style="fill:#a37747;fill-opacity:1;fill-rule:nonzero;stroke:none"
         d="m 4884.99,634.992 c 328.04,-328.043 698.44,-489.5 827.31,-360.633 71.74,71.743 53.42,218.371 -33.44,390.832 l 88.57,173.418 C 5630.66,1139.5 5389.5,1380.66 5088.61,1517.43 l -173.42,-88.57 c -172.46,86.86 -319.09,105.18 -390.83,33.44 -128.87,-128.87 32.59,-499.269 360.63,-827.308" /><path
         id="path28"
         style="fill:#8c5620;fill-opacity:1;fill-rule:nonzero;stroke:none"
         d="m 4672.85,1313.81 c -76.15,-76.15 61.57,-337.33 307.6,-583.361 246.03,-246.027 507.21,-383.75 583.36,-307.597 44.06,44.058 16.19,150.211 -62.49,279.378 l 88.63,163 c -55.31,99.11 -123.9,189.9 -204.36,270.36 -80.45,80.45 -171.22,149.06 -270.36,204.36 l -163,-88.63 c -129.17,78.68 -235.32,106.55 -279.38,62.49" /><path
         id="path30"
         style="fill:#ffffff;fill-opacity:1;fill-rule:nonzero;stroke:none"
         d="m 5419.85,1600.46 c 1.64,-9.42 -5.99,-17.05 -15.41,-15.41 -18.59,3.23 -38.41,-2.33 -52.76,-16.68 -23.44,-23.43 -23.43,-61.42 0,-84.85 23.43,-23.44 61.42,-23.44 84.85,0 l 296.99,-296.99 c -23.44,-23.43 -23.44,-61.42 0,-84.85 23.43,-23.43 61.42,-23.44 84.85,0 14.35,14.35 19.91,34.17 16.68,52.76 -1.64,9.42 5.99,17.05 15.41,15.41 18.59,-3.23 38.41,2.33 52.76,16.68 23.43,23.43 23.43,61.42 0,84.85 -23.43,23.43 -61.42,23.43 -84.85,0 l -296.99,296.99 c 23.43,23.43 23.43,61.42 0,84.85 -23.43,23.43 -61.42,23.43 -84.85,0 -14.35,-14.35 -19.91,-34.17 -16.68,-52.76" /><path
         id="path32"
         style="fill:#8c5620;fill-opacity:1;fill-rule:nonzero;stroke:none"
         d="m 740.438,1941.03 -32.063,-119.67 -39.844,-23.01 c -54.437,-31.42 -73.261,-101.68 -41.832,-156.11 31.43,-54.44 101.684,-73.26 156.117,-41.83 l 33.235,19.18 130.097,-34.85 c 60.712,-16.27 123.702,20.09 139.972,80.81 v 0 c 16.27,60.71 -20.1,123.7 -80.81,139.97 l -52.689,14.12 c -1.328,2.79 -2.68,5.58 -4.254,8.31 -0.347,0.61 -0.769,1.14 -1.125,1.74 l 13.981,52.18 c 16.265,60.72 -20.098,123.7 -80.813,139.97 v 0 c -60.715,16.27 -123.699,-20.09 -139.972,-80.81" /><path
         id="path34"
         style="fill:#8c5620;fill-opacity:1;fill-rule:nonzero;stroke:none"
         d="m 698.27,1360 c 0,55.23 25.582,100 57.144,100 31.555,0 57.141,-44.77 57.141,-100 0,-55.23 -25.586,-100 -57.141,-100 -31.562,0 -57.144,44.77 -57.144,100" /><path
         id="path36"
         style="fill:#8c5620;fill-opacity:1;fill-rule:nonzero;stroke:none"
         d="m 418.059,1845.34 c 47.832,-27.62 99.394,-27.84 115.171,-0.52 15.782,27.34 -10.199,71.88 -58.027,99.49 -47.832,27.62 -99.394,27.85 -115.176,0.51 -15.781,-27.32 10.203,-71.87 58.032,-99.48" /><path
         id="path38"
         style="fill:#8c5620;fill-opacity:1;fill-rule:nonzero;stroke:none"
         d="m 450.27,1486.74 c 60.437,50.71 134.101,62.43 164.531,26.17 30.426,-36.27 6.097,-106.78 -54.34,-157.49 -60.438,-50.72 -134.106,-62.43 -164.531,-26.17 -30.43,36.27 -6.102,106.78 54.34,157.49" /><path
         id="path40"
         style="fill:#8c5620;fill-opacity:1;fill-rule:nonzero;stroke:none"
         d="m 403.816,1567.19 c 74.145,26.99 121.118,84.92 104.93,129.41 -16.191,44.48 -89.422,58.67 -163.558,31.68 -74.141,-26.98 -121.118,-84.92 -104.926,-129.4 16.187,-44.49 89.418,-58.67 163.554,-31.69" /><path
         id="path42"
         style="fill:#8c5620;fill-opacity:1;fill-rule:nonzero;stroke:none"
         d="m 3721.34,2117.11 107.3,61.95 44.43,-11.91 c 60.72,-16.27 123.7,20.09 139.97,80.81 16.27,60.71 -20.09,123.7 -80.81,139.97 l -37.07,9.93 -67.34,116.64 c -31.43,54.44 -101.68,73.26 -156.11,41.84 h -0.01 c -54.43,-31.44 -73.26,-101.69 -41.83,-156.12 l 27.28,-47.24 c -1.05,-2.91 -2.06,-5.85 -2.88,-8.89 -0.18,-0.67 -0.26,-1.35 -0.43,-2.02 l -46.79,-27.01 c -54.43,-31.43 -73.26,-101.69 -41.83,-156.12 v 0 c 31.43,-54.44 101.68,-73.26 156.12,-41.83" /><path
         id="path44"
         style="fill:#8c5620;fill-opacity:1;fill-rule:nonzero;stroke:none"
         d="m 4162.01,2498.14 c -39.05,-39.05 -88.8,-52.62 -111.12,-30.31 -22.31,22.32 -8.74,72.07 30.31,111.12 39.05,39.05 88.8,52.62 111.11,30.31 22.32,-22.32 8.75,-72.07 -30.3,-111.12" /><path
         id="path46"
         style="fill:#8c5620;fill-opacity:1;fill-rule:nonzero;stroke:none"
         d="m 4016.96,1956.81 c -14.29,53.35 -50.59,89.97 -81.08,81.81 -30.48,-8.17 -43.6,-58.04 -29.31,-111.38 14.29,-53.35 50.6,-89.98 81.08,-81.81 30.48,8.17 43.61,58.04 29.31,111.38" /><path
         id="path48"
         style="fill:#8c5620;fill-opacity:1;fill-rule:nonzero;stroke:none"
         d="m 4247.75,2233.16 c -78.59,6.87 -138.96,50.68 -134.84,97.84 4.13,47.15 71.19,79.81 149.79,72.93 78.59,-6.87 138.97,-50.68 134.84,-97.84 -4.13,-47.15 -71.19,-79.81 -149.79,-72.93" /><path
         id="path50"
         style="fill:#8c5620;fill-opacity:1;fill-rule:nonzero;stroke:none"
         d="m 4223.71,2143.42 c -71.51,33.35 -145.69,25.6 -165.7,-17.31 -20,-42.9 21.75,-104.71 93.25,-138.05 71.51,-33.35 145.69,-25.6 165.7,17.31 20.01,42.9 -21.75,104.71 -93.25,138.05" /><path
         id="path52"
         style="fill:#8c5620;fill-opacity:1;fill-rule:nonzero;stroke:none"
         d="m 3870.44,288.969 -32.07,119.672 -39.84,23.007 c -54.44,31.422 -73.26,101.684 -41.83,156.114 31.43,54.437 101.68,73.258 156.12,41.828 l 33.23,-19.18 130.1,34.852 c 60.71,16.269 123.7,-20.09 139.97,-80.813 v 0 c 16.27,-60.707 -20.1,-123.699 -80.81,-139.969 l -52.69,-14.121 c -1.33,-2.789 -2.68,-5.578 -4.25,-8.308 -0.35,-0.61 -0.77,-1.141 -1.13,-1.742 l 13.98,-52.18 C 4107.49,287.41 4071.13,224.43 4010.41,208.16 v 0 c -60.72,-16.269 -123.7,20.09 -139.97,80.809" /><path
         id="path54"
         style="fill:#8c5620;fill-opacity:1;fill-rule:nonzero;stroke:none"
         d="m 3828.27,870 c 0,-55.23 25.58,-100 57.14,-100 31.56,0 57.14,44.77 57.14,100 0,55.23 -25.58,100 -57.14,100 -31.56,0 -57.14,-44.77 -57.14,-100" /><path
         id="path56"
         style="fill:#8c5620;fill-opacity:1;fill-rule:nonzero;stroke:none"
         d="m 3548.06,384.66 c 47.83,27.621 99.39,27.84 115.17,0.52 15.78,-27.34 -10.2,-71.879 -58.03,-99.489 -47.83,-27.621 -99.39,-27.851 -115.17,-0.511 -15.78,27.32 10.2,71.871 58.03,99.48" /><path
         id="path58"
         style="fill:#8c5620;fill-opacity:1;fill-rule:nonzero;stroke:none"
         d="m 3580.27,743.262 c 60.44,-50.711 134.1,-62.43 164.53,-26.172 30.43,36.269 6.1,106.781 -54.34,157.492 -60.44,50.719 -134.1,62.43 -164.53,26.168 -30.43,-36.27 -6.1,-106.781 54.34,-157.488" /><path
         id="path60"
         style="fill:#8c5620;fill-opacity:1;fill-rule:nonzero;stroke:none"
         d="m 3533.82,662.809 c 74.14,-26.989 121.11,-84.918 104.93,-129.407 -16.2,-44.48 -89.42,-58.672 -163.56,-31.683 -74.14,26.98 -121.12,84.922 -104.93,129.402 16.19,44.488 89.42,58.668 163.56,31.688" /><path
         id="path62"
         style="fill:#8c5620;fill-opacity:1;fill-rule:nonzero;stroke:none"
         d="m 1787.04,4342.89 -71.07,101.49 -45.3,7.99 c -61.91,10.91 -103.62,70.49 -92.71,132.39 10.92,61.91 70.5,103.62 132.4,92.71 l 37.79,-6.67 110.33,77.25 c 51.49,36.06 123.11,23.43 159.17,-28.06 v 0 c 36.05,-51.49 23.42,-123.12 -28.07,-159.17 l -44.68,-31.29 c -0.29,-3.08 -0.6,-6.17 -1.15,-9.27 -0.12,-0.68 -0.33,-1.33 -0.46,-2.02 l 30.98,-44.25 c 36.05,-51.49 23.43,-123.11 -28.06,-159.17 v 0 c -51.49,-36.05 -123.12,-23.42 -159.17,28.07" /><path
         id="path64"
         style="fill:#8c5620;fill-opacity:1;fill-rule:nonzero;stroke:none"
         d="m 1548.69,4874.46 c 18.89,-51.9 58.24,-85.22 87.89,-74.43 29.66,10.8 38.39,61.62 19.5,113.51 -18.89,51.9 -58.24,85.22 -87.9,74.43 -29.65,-10.79 -38.38,-61.62 -19.49,-113.51" /><path
         id="path66"
         style="fill:#8c5620;fill-opacity:1;fill-rule:nonzero;stroke:none"
         d="m 1451.37,4322.55 c 35.5,42.31 83.88,60.16 108.05,39.87 24.18,-20.28 15,-71.02 -20.5,-113.33 -35.5,-42.31 -83.88,-60.16 -108.06,-39.87 -24.17,20.28 -14.99,71.02 20.51,113.33" /><path
         id="path68"
         style="fill:#8c5620;fill-opacity:1;fill-rule:nonzero;stroke:none"
         d="m 1358.99,4670.54 c 74.14,-26.99 147.36,-12.8 163.56,31.68 16.19,44.49 -30.79,102.42 -104.93,129.41 -74.14,26.98 -147.37,12.8 -163.56,-31.69 -16.19,-44.48 30.79,-102.42 104.93,-129.4" /><path
         id="path70"
         style="fill:#8c5620;fill-opacity:1;fill-rule:nonzero;stroke:none"
         d="m 1342.86,4579.05 c 78.9,0 142.86,-38.37 142.86,-85.71 0,-47.34 -63.96,-85.72 -142.86,-85.72 -78.9,0 -142.86,38.38 -142.86,85.72 0,47.34 63.96,85.71 142.86,85.71" /><path
         id="path72"
         style="fill:#8c5620;fill-opacity:1;fill-rule:nonzero;stroke:none"
         d="m 4587.47,7337.27 -112.28,52.37 -43.23,-15.74 c -59.07,-21.5 -124.98,9.24 -146.48,68.31 -21.5,59.06 9.23,124.98 68.3,146.48 l 36.06,13.12 56.92,122.07 c 26.57,56.97 94.91,81.84 151.88,55.28 v 0 c 56.97,-26.57 81.84,-94.91 55.28,-151.88 l -23.05,-49.44 c 1.29,-2.81 2.56,-5.64 3.63,-8.6 0.24,-0.65 0.39,-1.32 0.61,-1.98 l 48.96,-22.83 c 56.97,-26.56 81.85,-94.91 55.28,-151.88 v 0 c -26.56,-56.96 -94.91,-81.84 -151.88,-55.28" /><path
         id="path74"
         style="fill:#8c5620;fill-opacity:1;fill-rule:nonzero;stroke:none"
         d="m 4115.27,7678.45 c 42.31,-35.5 93.05,-44.68 113.34,-20.5 20.28,24.17 2.43,72.55 -39.88,108.05 -42.3,35.5 -93.05,44.68 -113.33,20.5 -20.29,-24.17 -2.44,-72.55 39.87,-108.05" /><path
         id="path76"
         style="fill:#8c5620;fill-opacity:1;fill-rule:nonzero;stroke:none"
         d="m 4306.95,7151.83 c 9.59,54.38 42.56,94.04 73.64,88.56 31.08,-5.48 48.5,-54.02 38.91,-108.41 -9.59,-54.39 -42.56,-94.03 -73.64,-88.56 -31.08,5.49 -48.5,54.02 -38.91,108.41" /><path
         id="path78"
         style="fill:#8c5620;fill-opacity:1;fill-rule:nonzero;stroke:none"
         d="m 4052.95,7407 c 77.7,13.7 134.02,62.6 125.8,109.22 -8.22,46.62 -77.87,73.31 -155.57,59.61 -77.7,-13.7 -134.02,-62.6 -125.8,-109.22 8.22,-46.62 77.87,-73.31 155.57,-59.61" /><path
         id="path80"
         style="fill:#8c5620;fill-opacity:1;fill-rule:nonzero;stroke:none"
         d="m 4084.72,7319.71 c 68.33,39.45 142.91,38.19 166.58,-2.81 23.67,-40.99 -12.54,-106.21 -80.86,-145.65 -68.33,-39.45 -142.91,-38.2 -166.58,2.8 -23.67,40.99 12.53,106.21 80.86,145.66" /><path
         id="path82"
         style="fill:#8c5620;fill-opacity:1;fill-rule:nonzero;stroke:none"
         d="m 5066.01,4664.87 42.38,-116.42 41.69,-19.44 c 56.97,-26.57 81.84,-94.91 55.28,-151.88 -26.57,-56.97 -94.91,-81.84 -151.88,-55.28 l -34.78,16.22 -126.56,-46.06 c -59.07,-21.5 -124.98,9.24 -146.48,68.3 v 0 c -21.5,59.07 9.24,124.99 68.3,146.48 l 51.26,18.66 c 1.07,2.9 2.18,5.8 3.51,8.65 0.3,0.64 0.67,1.21 0.97,1.84 l -18.48,50.76 c -21.49,59.06 9.24,124.98 68.31,146.48 v 0 c 59.07,21.5 124.98,-9.24 146.48,-68.31" /><path
         id="path84"
         style="fill:#8c5620;fill-opacity:1;fill-rule:nonzero;stroke:none"
         d="m 5158.66,4089.73 c -4.81,55.02 -34.2,97.39 -65.64,94.64 -31.44,-2.75 -53.02,-49.58 -48.21,-104.6 4.81,-55.02 34.2,-97.39 65.64,-94.64 31.44,2.75 53.02,49.58 48.21,104.6" /><path
         id="path86"
         style="fill:#8c5620;fill-opacity:1;fill-rule:nonzero;stroke:none"
         d="m 5395.51,4597.64 c -45.25,-31.68 -96.59,-36.4 -114.7,-10.55 -18.1,25.86 3.9,72.49 49.14,104.17 45.24,31.68 96.59,36.4 114.69,10.55 18.11,-25.85 -3.9,-72.49 -49.13,-104.17" /><path
         id="path88"
         style="fill:#8c5620;fill-opacity:1;fill-rule:nonzero;stroke:none"
         d="m 5394.67,4237.6 c -64.63,45.26 -139.03,50.51 -166.18,11.73 -27.15,-38.78 3.23,-106.9 67.86,-152.15 64.62,-45.26 139.03,-50.51 166.18,-11.73 27.15,38.78 -3.23,106.9 -67.86,152.15" /><path
         id="path90"
         style="fill:#8c5620;fill-opacity:1;fill-rule:nonzero;stroke:none"
         d="m 5433.93,4321.8 c -76.21,20.42 -128.05,74.04 -115.8,119.76 12.25,45.73 83.96,66.25 160.17,45.83 76.21,-20.42 128.06,-74.05 115.81,-119.77 -12.25,-45.73 -83.97,-66.24 -160.18,-45.82" /><path
         id="path92"
         style="fill:#8c5620;fill-opacity:1;fill-rule:nonzero;stroke:none"
         d="m 6807.04,3272.89 -71.07,101.49 -45.3,7.99 c -61.91,10.91 -103.62,70.49 -92.71,132.39 10.92,61.91 70.5,103.62 132.4,92.71 l 37.79,-6.67 110.33,77.25 c 51.49,36.06 123.11,23.43 159.17,-28.06 v 0 c 36.05,-51.49 23.42,-123.12 -28.07,-159.17 l -44.68,-31.29 c -0.29,-3.08 -0.6,-6.17 -1.15,-9.27 -0.12,-0.68 -0.33,-1.33 -0.46,-2.02 l 30.98,-44.25 c 36.05,-51.49 23.43,-123.11 -28.06,-159.17 v 0 c -51.49,-36.05 -123.12,-23.42 -159.17,28.07" /><path
         id="path94"
         style="fill:#8c5620;fill-opacity:1;fill-rule:nonzero;stroke:none"
         d="m 6568.69,3804.46 c 18.89,-51.9 58.24,-85.22 87.89,-74.43 29.66,10.8 38.39,61.62 19.5,113.51 -18.89,51.9 -58.24,85.22 -87.9,74.43 -29.65,-10.79 -38.38,-61.62 -19.49,-113.51" /><path
         id="path96"
         style="fill:#8c5620;fill-opacity:1;fill-rule:nonzero;stroke:none"
         d="m 6471.37,3252.55 c 35.5,42.31 83.88,60.16 108.05,39.87 24.18,-20.28 15,-71.02 -20.5,-113.33 -35.5,-42.31 -83.88,-60.16 -108.06,-39.87 -24.17,20.28 -14.99,71.02 20.51,113.33" /><path
         id="path98"
         style="fill:#8c5620;fill-opacity:1;fill-rule:nonzero;stroke:none"
         d="m 6378.99,3600.54 c 74.14,-26.99 147.36,-12.8 163.56,31.68 16.19,44.49 -30.79,102.42 -104.93,129.41 -74.14,26.98 -147.37,12.8 -163.56,-31.69 -16.19,-44.48 30.79,-102.42 104.93,-129.4" /><path
         id="path100"
         style="fill:#8c5620;fill-opacity:1;fill-rule:nonzero;stroke:none"
         d="m 6362.86,3509.05 c 78.9,0 142.86,-38.37 142.86,-85.71 0,-47.34 -63.96,-85.72 -142.86,-85.72 -78.9,0 -142.86,38.38 -142.86,85.72 0,47.34 63.96,85.71 142.86,85.71" /><path
         id="path102"
         style="fill:#8c5620;fill-opacity:1;fill-rule:nonzero;stroke:none"
         d="m 7337.04,322.039 -71.07,101.492 -45.3,7.989 c -61.91,10.921 -103.62,70.492 -92.71,132.402 10.92,61.898 70.5,103.609 132.4,92.699 l 37.79,-6.66 110.33,77.25 c 51.49,36.051 123.11,23.418 159.17,-28.07 v 0 c 36.05,-51.489 23.42,-123.11 -28.07,-159.172 l -44.68,-31.278 c -0.29,-3.082 -0.6,-6.171 -1.15,-9.269 -0.12,-0.692 -0.33,-1.34 -0.46,-2.024 l 30.98,-44.25 c 36.05,-51.488 23.43,-123.117 -28.06,-159.168 v 0 c -51.49,-36.058 -123.12,-23.429 -159.17,28.059" /><path
         id="path104"
         style="fill:#8c5620;fill-opacity:1;fill-rule:nonzero;stroke:none"
         d="m 7098.69,853.609 c 18.89,-51.898 58.24,-85.218 87.89,-74.418 29.66,10.789 38.39,61.61 19.5,113.508 -18.89,51.903 -58.24,85.223 -87.9,74.422 -29.65,-10.789 -38.38,-61.609 -19.49,-113.512" /><path
         id="path106"
         style="fill:#8c5620;fill-opacity:1;fill-rule:nonzero;stroke:none"
         d="m 7001.37,301.711 c 35.5,42.301 83.88,60.16 108.05,39.871 24.18,-20.293 15,-71.031 -20.5,-113.344 -35.5,-42.297 -83.88,-60.156 -108.06,-39.867 -24.17,20.289 -14.99,71.027 20.51,113.34" /><path
         id="path108"
         style="fill:#8c5620;fill-opacity:1;fill-rule:nonzero;stroke:none"
         d="m 6908.99,649.691 c 74.14,-26.98 147.36,-12.8 163.56,31.688 16.19,44.48 -30.79,102.422 -104.93,129.402 -74.14,26.989 -147.37,12.797 -163.56,-31.679 -16.19,-44.493 30.79,-102.422 104.93,-129.411" /><path
         id="path110"
         style="fill:#8c5620;fill-opacity:1;fill-rule:nonzero;stroke:none"
         d="m 6892.86,558.211 c 78.9,0 142.86,-38.383 142.86,-85.719 0,-47.34 -63.96,-85.711 -142.86,-85.711 -78.9,0 -142.86,38.371 -142.86,85.711 0,47.336 63.96,85.719 142.86,85.719" /><path
         id="path112"
         style="fill:#cafb8a;fill-opacity:1;fill-rule:nonzero;stroke:none"
         d="m 7461.03,7771.87 c -40.34,10.8 -81.36,-0.32 -110.5,-26.01 -12.38,36.82 -42.35,66.96 -82.69,77.77 -64.01,17.15 -129.81,-20.84 -146.97,-84.85 -17.15,-64.02 20.84,-129.82 84.86,-146.97 L 7009.02,6857.7 c -64.01,17.16 -129.81,-20.83 -146.96,-84.85 -17.16,-64.01 20.83,-129.82 84.85,-146.97 40.34,-10.81 81.36,0.31 110.49,26.01 12.39,-36.82 42.35,-66.96 82.69,-77.77 64.02,-17.15 129.82,20.83 146.97,84.85 17.15,64.02 -20.83,129.82 -84.85,146.97 l 196.7,734.11 c 64.02,-17.16 129.82,20.83 146.97,84.85 17.15,64.01 -20.83,129.81 -84.85,146.97" /><path
         id="path114"
         style="fill:#cafb8a;fill-opacity:1;fill-rule:nonzero;stroke:none"
         d="m 858.043,7303.38 c -29.531,-29.53 -40.414,-70.61 -32.727,-108.7 -38.082,7.69 -79.168,-3.19 -108.699,-32.72 -46.859,-46.87 -46.859,-122.84 0,-169.71 46.863,-46.86 122.844,-46.86 169.707,0 l 537.406,-537.4 c -46.87,-46.86 -46.87,-122.84 0,-169.7 46.86,-46.87 122.84,-46.87 169.7,0 29.53,29.53 40.41,70.61 32.73,108.7 38.08,-7.69 79.16,3.19 108.69,32.72 46.87,46.87 46.87,122.84 0,169.71 -46.86,46.86 -122.84,46.86 -169.7,0 l -537.4,537.4 c 46.86,46.86 46.86,122.84 0,169.7 -46.867,46.87 -122.844,46.87 -169.707,0" /><path
         id="path116"
         style="fill:#cafb8a;fill-opacity:1;fill-rule:nonzero;stroke:none"
         d="m 4430,6170 c -41.77,0 -78.51,-21.36 -100,-53.72 -21.49,32.36 -58.24,53.72 -100,53.72 -66.28,0 -120,-53.73 -120,-120 0,-66.27 53.73,-120 120,-120 v -760 c -66.28,0 -120,-53.73 -120,-120 0,-66.27 53.72,-120 120,-120 41.76,0 78.51,21.36 100,53.72 21.49,-32.36 58.23,-53.72 100,-53.72 66.27,0 120,53.73 120,120 0,66.27 -53.73,120 -120,120 v 760 c 66.27,0 120,53.73 120,120 0,66.27 -53.73,120 -120,120" /><path
         id="path118"
         style="fill:#cafb8a;fill-opacity:1;fill-rule:nonzero;stroke:none"
         d="m 3024.27,2525.73 c 0,41.77 -21.36,78.51 -53.73,100 32.37,21.5 53.73,58.24 53.73,100 -0.01,66.28 -53.73,120 -120.01,120.01 -66.27,-0.01 -119.99,-53.73 -119.99,-120 h -760.01 c 0.01,66.27 -53.72,120 -119.99,119.99 -66.28,0.01 -120,-53.72 -120,-120 0,-41.76 21.35,-78.5 53.72,-100 -32.37,-21.49 -53.72,-58.23 -53.72,-100 0,-66.27 53.72,-119.99 120,-120 66.27,0.01 120,53.73 120,120 h 760 c 0,-66.27 53.72,-120 120,-119.99 66.27,-0.01 120,53.72 120,119.99" /><path
         id="path120"
         style="fill:#cafb8a;fill-opacity:1;fill-rule:nonzero;stroke:none"
         d="m 6246.62,1668.04 c 29.53,-29.53 70.61,-40.41 108.69,-32.73 -7.68,-38.08 3.2,-79.16 32.73,-108.69 46.86,-46.86 122.84,-46.86 169.71,0 46.86,46.86 46.86,122.84 0,169.71 l 537.4,537.4 c 46.86,-46.87 122.84,-46.87 169.7,0 46.87,46.86 46.87,122.84 0,169.7 -29.53,29.53 -70.61,40.41 -108.7,32.72 7.69,38.09 -3.19,79.17 -32.72,108.7 -46.87,46.87 -122.84,46.87 -169.71,0 -46.86,-46.86 -46.86,-122.84 0,-169.7 l -537.4,-537.4 c -46.86,46.86 -122.84,46.86 -169.7,0 -46.87,-46.87 -46.87,-122.85 0,-169.71" /><path
         id="path122"
         style="fill:#8c5620;fill-opacity:1;fill-rule:nonzero;stroke:none"
         d="m 1599.54,3645.29 c -5.26,0.04 -10.34,2.15 -14.1,5.96 -4.69,4.76 -6.71,11.58 -5.34,18.13 6.91,32.98 -3.04,66.92 -26.59,90.82 -18.75,19.03 -43.79,29.6 -70.49,29.8 -26.72,0.19 -51.91,-10.01 -70.94,-28.76 -39.27,-38.72 -39.73,-102.15 -1.04,-141.42 7.76,-7.87 7.67,-20.53 -0.2,-28.28 L 869.504,3058.1 c -7.871,-7.76 -20.527,-7.67 -28.281,0.21 -38.7,39.26 -102.157,39.73 -141.422,1.03 -19.028,-18.74 -29.602,-43.78 -29.797,-70.5 -0.195,-26.7 10.008,-51.89 28.758,-70.92 23.551,-23.9 57.343,-34.35 90.383,-27.91 6.668,1.24 13.371,-0.82 18.062,-5.6 4.691,-4.76 6.715,-11.57 5.336,-18.13 -6.902,-32.97 3.047,-66.91 26.602,-90.82 18.746,-19.02 43.789,-29.6 70.484,-29.8 26.719,-0.19 51.914,10.01 70.937,28.76 39.264,38.72 39.734,102.15 1.039,141.42 -7.753,7.87 -7.664,20.53 0.208,28.28 l 541.337,533.45 c 7.87,7.75 20.52,7.66 28.28,-0.21 38.69,-39.27 102.15,-39.74 141.42,-1.04 19.03,18.75 29.6,43.79 29.79,70.5 0.2,26.7 -10.01,51.9 -28.75,70.92 -23.56,23.93 -57.37,34.35 -90.39,27.91 -1.32,-0.24 -2.66,-0.37 -3.96,-0.36 z M 1483.31,3830 c 37.38,-0.28 72.43,-15.09 98.68,-41.73 26.72,-27.11 40.93,-63.42 40.24,-100.74 0.55,-0.01 1.08,-0.01 1.6,-0.02 36.76,-0.26 72.22,-14.96 98.55,-41.7 26.25,-26.64 40.54,-61.9 40.26,-99.28 -0.27,-37.4 -15.08,-72.45 -41.72,-98.7 -50.13,-49.42 -128.46,-53.2 -182.92,-11.8 l -514.87,-507.37 c 40.61,-55.08 35.66,-133.29 -14.49,-182.73 -26.64,-26.25 -61.906,-40.54 -99.304,-40.26 -37.383,0.27 -72.434,15.08 -98.684,41.72 -26.711,27.11 -40.918,63.43 -40.234,100.74 -0.547,0.01 -1.074,0.01 -1.602,0.02 -36.757,0.27 -72.218,14.96 -98.546,41.7 -26.25,26.64 -40.54,61.9 -40.266,99.28 0.273,37.4 15.086,72.45 41.723,98.7 50.148,49.42 128.48,53.22 182.925,11.8 L 1369.52,3607 c -40.61,55.08 -35.66,133.29 14.49,182.73 26.64,26.25 61.9,40.54 99.3,40.27" /><path
         id="path124"
         style="fill:#8c5620;fill-opacity:1;fill-rule:nonzero;stroke:none"
         d="m 5654.71,5539.54 c -0.04,-5.26 -2.15,-10.34 -5.96,-14.1 -4.76,-4.69 -11.58,-6.71 -18.13,-5.34 -32.98,6.91 -66.92,-3.04 -90.82,-26.59 -19.03,-18.75 -29.6,-43.79 -29.8,-70.49 -0.19,-26.72 10.01,-51.91 28.76,-70.94 38.72,-39.27 102.15,-39.73 141.42,-1.04 7.87,7.76 20.53,7.67 28.28,-0.2 L 6241.9,4809.5 c 7.76,-7.87 7.67,-20.53 -0.21,-28.28 -39.26,-38.7 -39.73,-102.15 -1.03,-141.42 18.74,-19.03 43.78,-29.6 70.5,-29.8 26.7,-0.19 51.89,10.01 70.92,28.76 23.9,23.55 34.35,57.35 27.91,90.38 -1.24,6.67 0.82,13.38 5.6,18.07 4.76,4.69 11.57,6.71 18.13,5.33 32.97,-6.9 66.91,3.05 90.82,26.6 19.02,18.75 29.6,43.79 29.8,70.49 0.19,26.72 -10.01,51.91 -28.76,70.94 -38.72,39.26 -102.15,39.73 -141.42,1.03 -7.87,-7.75 -20.53,-7.66 -28.28,0.21 l -533.45,541.34 c -7.75,7.87 -7.66,20.52 0.21,28.28 39.27,38.69 39.74,102.15 1.04,141.42 -18.75,19.02 -43.79,29.6 -70.5,29.79 -26.7,0.2 -51.9,-10.01 -70.92,-28.75 -23.93,-23.56 -34.35,-57.37 -27.91,-90.39 0.24,-1.32 0.37,-2.66 0.36,-3.96 z M 5470,5423.31 c 0.28,37.38 15.09,72.43 41.73,98.68 27.11,26.72 63.42,40.93 100.74,40.24 0.01,0.55 0.01,1.08 0.02,1.6 0.26,36.76 14.96,72.22 41.7,98.55 26.64,26.25 61.9,40.54 99.28,40.26 37.4,-0.27 72.45,-15.08 98.7,-41.72 49.42,-50.13 53.2,-128.46 11.8,-182.92 l 507.37,-514.88 c 55.08,40.62 133.29,35.67 182.73,-14.48 26.25,-26.64 40.54,-61.9 40.26,-99.3 -0.27,-37.39 -15.08,-72.44 -41.72,-98.69 -27.11,-26.71 -63.43,-40.92 -100.74,-40.23 -0.01,-0.55 -0.01,-1.08 -0.02,-1.6 -0.27,-36.76 -14.96,-72.22 -41.7,-98.55 -26.64,-26.25 -61.9,-40.54 -99.28,-40.27 -37.4,0.28 -72.45,15.09 -98.7,41.73 -49.42,50.14 -53.22,128.48 -11.8,182.92 L 5693,5309.52 c -55.08,-40.61 -133.29,-35.66 -182.73,14.49 -26.25,26.64 -40.54,61.9 -40.27,99.3" /><path
         id="path126"
         style="fill:#8c5620;fill-opacity:1;fill-rule:nonzero;stroke:none"
         d="m 1744.15,1602.14 c -3.71,-3.72 -8.78,-5.86 -14.14,-5.86 -6.68,0 -12.95,3.34 -16.65,8.92 -18.65,28.07 -49.81,44.8 -83.36,44.8 -26.71,0 -51.82,-10.41 -70.7,-29.29 -18.89,-18.89 -29.31,-44 -29.31,-70.71 0.01,-55.14 44.87,-100 100.01,-100 11.04,0 19.99,-8.95 19.99,-20 V 670 c 0,-11.051 -8.95,-20 -20,-20 -55.13,0 -100,-44.871 -100,-100 0,-26.711 10.41,-51.82 29.31,-70.711 18.88,-18.879 43.98,-29.289 70.69,-29.289 33.56,0 64.72,16.73 83.32,44.781 3.8,5.617 9.97,8.949 16.67,8.938 6.69,0 12.96,-3.34 16.66,-8.93 C 1765.28,466.73 1796.44,450 1830,450 c 26.71,0 51.82,10.41 70.7,29.289 18.89,18.891 29.3,44 29.3,70.711 -0.01,55.141 -44.87,100 -100,100 -11.05,0 -20,8.949 -20,20 v 760 c 0,11.05 8.95,20 20,20 55.13,0 100,44.87 100,100 0,26.71 -10.41,51.82 -29.3,70.71 -18.88,18.88 -43.99,29.29 -70.7,29.29 -33.57,0.02 -64.73,-16.75 -83.32,-44.78 -0.76,-1.12 -1.6,-2.16 -2.53,-3.08 z M 1531.01,1649 c 26.44,26.43 61.59,41 98.99,41 38.06,0 73.9,-15.37 100,-42.05 0.39,0.38 0.76,0.76 1.13,1.13 25.99,25.99 61.35,40.93 98.87,40.92 37.4,0 72.55,-14.57 98.98,-41 26.45,-26.45 41.02,-61.6 41.02,-99 0.01,-70.39 -52.27,-128.84 -119.99,-138.58 V 688.57 c 67.74,-9.73 119.98,-68.148 119.99,-138.57 0,-37.398 -14.57,-72.551 -41.02,-99 -26.43,-26.43 -61.58,-41 -98.98,-41 -38.06,0 -73.9,15.371 -100,42.051 -0.39,-0.379 -0.76,-0.762 -1.14,-1.129 -25.99,-25.992 -61.34,-40.93 -98.87,-40.922 -37.39,0 -72.54,14.57 -98.98,41 -26.44,26.449 -41.01,61.602 -41.01,99 0,70.41 52.27,128.859 119.98,138.57 v 722.86 c -67.74,9.73 -119.97,68.15 -119.98,138.57 0,37.4 14.57,72.55 41.01,99" /><path
         id="path128"
         style="fill:#8c5620;fill-opacity:1;fill-rule:nonzero;stroke:none"
         d="m 2454.11,4976.51 c 4.55,-2.63 7.93,-6.97 9.32,-12.14 1.72,-6.46 0.12,-13.38 -4.31,-18.4 -22.28,-25.27 -30.39,-59.7 -21.7,-92.12 6.91,-25.8 23.47,-47.35 46.59,-60.7 23.14,-13.36 50.09,-16.92 75.89,-10.01 53.26,14.29 84.98,69.23 70.71,122.48 -2.86,10.67 3.47,21.63 14.14,24.49 l 734.1,196.7 c 10.68,2.86 21.64,-3.47 24.5,-14.14 14.27,-53.25 69.22,-84.98 122.48,-70.71 25.8,6.91 47.35,23.47 60.71,46.61 13.35,23.12 16.91,50.07 10,75.87 -8.69,32.42 -32.92,58.18 -64.83,68.89 -6.41,2.21 -11.22,7.31 -12.94,13.79 -1.73,6.45 -0.13,13.38 4.3,18.4 22.28,25.27 30.39,59.69 21.7,92.11 -6.91,25.8 -23.47,47.36 -46.59,60.71 -23.14,13.36 -50.09,16.92 -75.89,10 -53.26,-14.28 -84.98,-69.22 -70.71,-122.48 2.86,-10.67 -3.47,-21.63 -14.14,-24.49 l -734.11,-196.7 c -10.67,-2.86 -21.63,3.47 -24.49,14.14 -14.27,53.26 -69.22,84.98 -122.48,70.71 -25.8,-6.91 -47.35,-23.47 -60.71,-46.6 -13.35,-23.13 -16.91,-50.08 -10,-75.87 8.68,-32.44 32.94,-58.2 64.83,-68.89 1.28,-0.45 2.49,-0.99 3.63,-1.65 z m 9.9,-218 c -32.37,18.69 -55.55,48.87 -65.23,84.99 -9.85,36.77 -4.28,75.36 14.74,107.48 -0.47,0.27 -0.93,0.54 -1.38,0.8 -31.84,18.38 -55.42,48.66 -65.12,84.91 -9.68,36.13 -4.7,73.85 13.99,106.23 18.7,32.39 48.88,55.56 85,65.24 67.99,18.23 137.98,-17.15 164.91,-80.04 l 698.22,187.09 c -8.12,67.95 34.79,133.53 102.8,151.77 36.13,9.68 73.85,4.7 106.24,-14 32.37,-18.69 55.55,-48.87 65.23,-85 9.85,-36.76 4.28,-75.36 -14.74,-107.48 0.47,-0.27 0.93,-0.53 1.38,-0.8 31.84,-18.38 55.42,-48.66 65.12,-84.91 9.68,-36.12 4.7,-73.85 -13.99,-106.22 -18.7,-32.39 -48.88,-55.56 -85,-65.24 -68.01,-18.23 -138.01,17.14 -164.91,80.03 l -698.22,-187.09 c 8.12,-67.95 -34.79,-133.52 -102.8,-151.76 -36.13,-9.68 -73.85,-4.71 -106.24,14" /><path
         id="path130"
         style="fill:#8c5620;fill-opacity:1;fill-rule:nonzero;stroke:none"
         d="m 3909.48,3191.44 c 4.56,2.62 10,3.38 15.18,1.99 6.46,-1.73 11.65,-6.58 13.78,-12.93 10.75,-31.93 36.51,-56.16 68.93,-64.85 25.8,-6.91 52.74,-3.35 75.86,10 23.14,13.36 39.7,34.91 46.61,60.71 14.26,53.28 -17.45,108.21 -70.71,122.48 -10.67,2.86 -17,13.82 -14.14,24.49 l 196.7,734.11 c 2.86,10.67 13.82,17 24.5,14.14 53.25,-14.27 108.2,17.46 122.47,70.71 6.92,25.8 3.36,52.75 -10,75.89 -13.35,23.12 -34.91,39.68 -60.71,46.59 -32.42,8.69 -66.84,0.58 -92.07,-21.69 -5.13,-4.45 -11.95,-6.07 -18.42,-4.32 -6.45,1.73 -11.64,6.58 -13.77,12.93 -10.75,31.93 -36.51,56.16 -68.93,64.85 -25.8,6.91 -52.75,3.35 -75.87,-10 -23.14,-13.36 -39.7,-34.91 -46.61,-60.71 -14.26,-53.28 17.46,-108.21 70.72,-122.48 10.67,-2.86 17,-13.82 14.14,-24.5 l -196.71,-734.1 c -2.86,-10.67 -13.82,-17 -24.49,-14.14 -53.25,14.27 -108.21,-17.46 -122.48,-70.71 -6.91,-25.8 -3.35,-52.75 10.01,-75.89 13.35,-23.12 34.9,-39.68 60.7,-46.59 32.43,-8.7 66.87,-0.57 92.08,21.69 1.02,0.89 2.1,1.67 3.23,2.33 z m 193.75,-100.43 c -32.37,-18.69 -70.09,-23.67 -106.22,-13.99 -36.76,9.85 -67.4,33.97 -85.71,66.5 -0.47,-0.27 -0.93,-0.53 -1.39,-0.8 -31.83,-18.38 -69.85,-23.66 -106.09,-13.94 -36.12,9.68 -66.3,32.86 -84.99,65.23 -18.7,32.39 -23.68,70.11 -14,106.24 18.2,67.99 83.84,110.92 151.76,102.8 l 187.09,698.22 c -62.91,26.94 -98.24,96.88 -80.03,164.91 9.68,36.12 32.85,66.3 65.24,85 32.37,18.69 70.1,23.67 106.22,13.99 36.77,-9.85 67.41,-33.97 85.71,-66.5 0.48,0.27 0.93,0.53 1.39,0.8 31.83,18.38 69.85,23.66 106.09,13.94 36.13,-9.68 66.31,-32.86 85,-65.23 18.7,-32.39 23.68,-70.11 14,-106.24 -18.23,-68 -83.85,-110.94 -151.77,-102.8 l -187.09,-698.22 c 62.92,-26.94 98.25,-96.88 80.04,-164.91 -9.68,-36.12 -32.85,-66.3 -65.25,-85" /><path
         id="path132"
         style="fill:#8c5620;fill-opacity:1;fill-rule:nonzero;stroke:none"
         d="m 6377.15,6651.69 c 1.36,5.07 4.68,9.46 9.32,12.14 5.79,3.34 12.89,3.58 18.89,0.6 30.17,-14.98 65.53,-13.9 94.59,2.88 23.13,13.36 39.67,34.93 46.58,60.72 6.91,25.81 3.38,52.76 -9.98,75.89 -27.58,47.75 -88.86,64.17 -136.6,36.6 -9.57,-5.52 -21.8,-2.25 -27.32,7.32 l -380,658.18 c -5.53,9.57 -2.25,21.8 7.32,27.32 47.74,27.57 64.17,88.86 36.6,136.61 -13.35,23.13 -34.93,39.67 -60.73,46.58 -25.79,6.91 -52.74,3.38 -75.88,-9.98 -29.06,-16.78 -47.67,-46.85 -49.76,-80.44 -0.48,-6.77 -4.16,-12.74 -9.97,-16.08 -5.79,-3.34 -12.89,-3.58 -18.88,-0.6 -30.18,14.98 -65.53,13.9 -94.6,-2.88 -23.13,-13.36 -39.66,-34.93 -46.58,-60.72 -6.91,-25.81 -3.38,-52.76 9.98,-75.89 27.58,-47.75 88.86,-64.17 136.61,-36.6 9.57,5.52 21.79,2.25 27.32,-7.32 l 380,-658.18 c 5.52,-9.57 2.24,-21.8 -7.32,-27.32 -47.75,-27.57 -64.17,-88.86 -36.61,-136.61 13.36,-23.13 34.93,-39.67 60.74,-46.58 25.79,-6.91 52.74,-3.37 75.87,9.98 29.08,16.77 47.68,46.87 49.76,80.45 0.1,1.34 0.31,2.66 0.65,3.93 z m 208.02,65.99 c -9.68,-36.11 -32.83,-66.31 -65.22,-85 -32.97,-19.04 -71.69,-23.64 -107.64,-13.59 -0.14,-0.53 -0.27,-1.04 -0.41,-1.54 -9.51,-35.51 -32.66,-66.13 -65.16,-84.88 -32.39,-18.7 -70.12,-23.65 -106.22,-13.98 -36.13,9.68 -66.33,32.84 -85.02,65.23 -35.21,60.95 -19.15,137.71 34.62,180 l -361.43,626.01 c -63.53,-25.44 -137.97,-0.97 -173.2,60.02 -18.7,32.38 -23.65,70.1 -13.97,106.23 9.67,36.11 32.83,66.3 65.22,85.01 32.96,19.03 71.68,23.63 107.63,13.58 0.14,0.53 0.28,1.03 0.41,1.55 9.52,35.5 32.66,66.12 65.17,84.87 32.39,18.7 70.11,23.65 106.22,13.98 36.13,-9.68 66.32,-32.83 85.02,-65.22 35.2,-60.98 19.16,-137.74 -34.63,-180.01 l 361.43,-626.01 c 63.53,25.44 137.98,0.97 173.2,-60.01 18.7,-32.39 23.66,-70.12 13.98,-106.24" /><path
         id="path134"
         style="fill:#8c5620;fill-opacity:1;fill-rule:nonzero;stroke:none"
         d="m 7305.9,5967.62 c 32.31,-32.32 32.27,-84.88 0,-117.17 l -34.37,-34.39 c -3.75,-3.75 -5.76,-10.71 -5.76,-16 0,-2.3 -0.2,-4.59 -0.37,-6.85 -0.04,-0.51 -0.06,-1.04 -0.06,-1.55 0,-5.29 2.09,-10.37 5.86,-14.14 l 34.7,-34.71 c 15.57,-15.56 24.14,-36.38 24.14,-58.59 0,-22.21 -8.57,-43.03 -24.14,-58.59 -32.3,-32.31 -84.88,-32.31 -117.18,0 l -85.71,85.72 c -3.75,3.75 -8.83,5.86 -14.14,5.86 h -34.55 c -45.68,0 -82.85,37.17 -82.85,82.85 0,45.68 37.17,82.85 82.85,82.85 h 41.41 c 5.31,0 10.39,2.11 14.14,5.86 l 78.85,78.85 c 32.3,32.3 84.88,32.3 117.18,0 z m -218.45,-44.71 h -33.13 c -67.73,0 -122.85,-55.11 -122.85,-122.85 0,-67.73 55.12,-122.85 122.85,-122.85 h 26.27 l 79.84,-79.86 c 47.91,-47.91 125.84,-47.91 173.75,0 23.95,23.94 35.94,55.41 35.94,86.87 0,31.47 -11.99,62.93 -35.94,86.88 l -25.52,25.52 25.52,25.55 c 47.9,47.89 47.88,125.84 0,173.73 -47.91,47.91 -125.84,47.91 -173.75,0 l -72.98,-72.99" /><path
         id="path136"
         style="fill:#8c5620;fill-opacity:1;fill-rule:nonzero;stroke:none"
         d="m 6959.79,5582.78 c 5.25,-3.03 8.69,-11.14 8.32,-23.6 -0.08,-15.92 -5.96,-35.13 -16.11,-52.73 -10.16,-17.6 -23.87,-32.29 -37.62,-40.31 -10.14,-5.92 -19.34,-7.64 -24.59,-4.59 -5.21,3 -8.32,11.69 -8.32,23.3 0,0.09 0,0.19 0,0.29 0.08,15.92 5.94,35.14 16.09,52.73 21.37,37 51.14,51.31 62.23,44.91 z m 20,34.64 c -34.69,20.02 -86.02,-6.15 -116.87,-59.55 -13.74,-23.79 -21.35,-49.55 -21.45,-72.56 0,-0.15 0,-0.29 0,-0.44 0,-26.47 10.31,-47.58 28.32,-57.97 18.11,-10.45 41.7,-8.75 64.75,4.68 19.88,11.61 38.38,31.08 52.11,54.87 13.73,23.79 21.34,49.55 21.44,72.56 0.02,0.15 0.02,0.29 0.02,0.45 0,26.46 -10.31,47.55 -28.32,57.96" /><path
         id="path138"
         style="fill:#8c5620;fill-opacity:1;fill-rule:nonzero;stroke:none"
         d="m 6914.38,6133.99 c 13.75,-8.03 27.46,-22.72 37.62,-40.32 10.15,-17.59 16.03,-36.81 16.11,-52.73 -0.29,-12.11 -3.07,-20.57 -8.32,-23.59 -11.09,-6.41 -40.86,7.91 -62.23,44.9 -10.15,17.6 -16.01,36.81 -16.09,52.73 -0.08,11.98 3.07,20.57 8.32,23.6 5.25,3.04 14.45,1.32 24.59,-4.59 z m -44.59,39.24 c -18.01,-10.4 -28.32,-31.51 -28.32,-57.97 0,-0.16 0,-0.3 0,-0.45 0.1,-23.01 7.71,-48.77 21.45,-72.56 30.85,-53.4 82.18,-79.57 116.87,-59.55 18.01,10.41 28.32,31.5 28.32,57.97 0,0.15 0,0.29 -0.02,0.45 -0.1,23 -7.71,48.77 -21.44,72.55 -13.73,23.79 -32.23,43.27 -52.11,54.87 -23.05,13.44 -46.64,15.13 -64.75,4.69" /><path
         id="path140"
         style="fill:#8c5620;fill-opacity:1;fill-rule:nonzero;stroke:none"
         d="m 6650.45,5663.44 c -0.25,1.46 -0.37,2.95 -0.37,4.45 0,26.17 37.82,60.16 97.39,70.69 29.86,5.25 60.03,3.26 82.81,-5.47 19.35,-7.4 31.74,-19.06 34.02,-31.97 2.17,-13.13 -5.41,-28.11 -21.03,-41.68 -18.42,-16 -46.12,-28.19 -75.98,-33.46 -62.99,-11.1 -112.13,10.82 -116.84,37.44 z m 219.05,-34.2 c 23.02,20 35.23,43.4 35.23,66.95 0,3.97 -0.35,7.93 -1.05,11.88 -4.83,27.5 -25.82,49.65 -59.09,62.4 -29.78,11.41 -66.73,14.06 -104.08,7.48 -82.03,-14.47 -139.16,-67.56 -129.43,-121.46 9.45,-53.64 81.13,-84.34 163.16,-69.87 37.35,6.57 71.18,21.72 95.26,42.62" /><path
         id="path142"
         style="fill:#8c5620;fill-opacity:1;fill-rule:nonzero;stroke:none"
         d="m 6747.47,5861.55 c -62.99,11.13 -101.64,48.24 -97.02,75.13 4.71,26.62 53.85,48.54 116.84,37.44 29.86,-5.27 57.56,-17.46 75.98,-33.45 15.64,-13.58 23.43,-28.62 21.01,-41.7 -2.26,-12.89 -14.65,-24.55 -34,-31.96 -22.78,-8.73 -52.95,-10.72 -82.81,-5.46 z m 156.21,30.48 c 0.7,3.97 1.05,7.93 1.05,11.9 0,23.55 -12.21,46.95 -35.23,66.95 -24.08,20.9 -57.91,36.06 -95.26,42.62 -82.03,14.47 -153.71,-16.23 -163.16,-69.86 -9.73,-53.93 47.4,-107 129.43,-121.47 37.35,-6.58 74.3,-3.93 104.08,7.48 33.27,12.75 54.26,34.9 59.09,62.38" /><path
         id="path144"
         style="fill:#8c5620;fill-opacity:1;fill-rule:nonzero;stroke:none"
         d="m 2914.91,1851.88 c 45.7,-0.01 82.84,-37.21 82.85,-82.85 l 0.02,-48.63 c 0,-5.3 3.49,-11.64 7.23,-15.39 1.63,-1.62 3.11,-3.38 4.59,-5.11 0.33,-0.38 0.69,-0.77 1.05,-1.13 3.74,-3.74 8.81,-5.85 14.14,-5.85 h 49.08 c 22.02,0 42.8,-8.66 58.51,-24.37 15.7,-15.7 24.36,-36.48 24.36,-58.5 0,-45.68 -37.18,-82.86 -82.87,-82.86 l -121.21,0.01 c -5.31,0 -10.39,-2.1 -14.14,-5.85 l -24.44,-24.43 c -32.3,-32.31 -84.86,-32.31 -117.17,0 -32.3,32.3 -32.3,84.86 0,117.16 l 29.28,29.28 c 3.76,3.76 5.86,8.84 5.86,14.15 v 111.5 c 0,45.69 37.18,82.87 82.86,82.87 z m -122.86,-186.09 -23.42,-23.42 c -47.9,-47.89 -47.9,-125.84 0,-173.74 47.9,-47.9 125.84,-47.9 173.74,0 l 18.57,18.58 112.93,-0.02 c 67.76,0 122.86,55.11 122.86,122.86 0,33.87 -13.77,64.6 -36.01,86.84 -22.25,22.25 -52.98,36.02 -86.85,36.02 h -36.1 l -0.01,36.12 c 0,67.73 -55.13,122.83 -122.85,122.84 -67.75,0 -122.86,-55.1 -122.86,-122.86 v -103.22" /><path
         id="path146"
         style="fill:#8c5620;fill-opacity:1;fill-rule:nonzero;stroke:none"
         d="m 2942.3,1335.01 c 5.85,1.58 14.02,-1.72 22.57,-10.8 11.2,-11.31 20.63,-29.05 25.89,-48.68 5.26,-19.62 5.95,-39.7 1.91,-55.11 -2.99,-11.35 -8.28,-19.07 -14.14,-20.63 -5.82,-1.56 -14.16,2.39 -22.37,10.6 -0.06,0.06 -0.13,0.13 -0.2,0.2 -11.2,11.31 -20.65,29.05 -25.91,48.67 -11.05,41.27 -0.13,72.44 12.25,75.75 z m -10.36,38.64 c -38.68,-10.37 -56.47,-65.17 -40.53,-124.75 7.11,-26.53 19.94,-50.13 36.14,-66.47 0.11,-0.11 0.21,-0.2 0.32,-0.32 18.71,-18.71 40.93,-26.35 61.01,-20.96 20.19,5.41 35.68,23.3 42.47,49.1 5.86,22.26 5.17,49.11 -1.95,75.64 -7.11,26.53 -19.94,50.13 -36.14,66.47 -0.1,0.12 -0.19,0.22 -0.3,0.33 -18.72,18.71 -40.92,26.34 -61.02,20.96" /><path
         id="path148"
         style="fill:#8c5620;fill-opacity:1;fill-rule:nonzero;stroke:none"
         d="m 2520.42,1692.67 c 15.4,4.04 35.48,3.36 55.11,-1.91 19.62,-5.26 37.37,-14.69 48.68,-25.89 8.36,-8.77 12.38,-16.71 10.8,-22.57 -3.31,-12.37 -34.48,-23.3 -75.75,-12.25 -19.63,5.26 -37.36,14.71 -48.67,25.91 -8.52,8.41 -12.37,16.71 -10.8,22.57 1.56,5.87 9.28,11.16 20.63,14.14 z m -59.27,-3.79 c -5.39,-20.08 2.25,-42.3 20.96,-61.01 0.11,-0.11 0.21,-0.21 0.32,-0.32 16.34,-16.2 39.94,-29.03 66.47,-36.14 59.58,-15.94 114.38,1.85 124.75,40.53 5.38,20.1 -2.25,42.31 -20.96,61.02 -0.11,0.11 -0.21,0.21 -0.33,0.3 -16.34,16.2 -39.94,29.03 -66.47,36.14 -26.53,7.12 -53.38,7.81 -75.64,1.95 -25.8,-6.79 -43.69,-22.28 -49.1,-42.47" /><path
         id="path150"
         style="fill:#8c5620;fill-opacity:1;fill-rule:nonzero;stroke:none"
         d="m 2666.53,1173.32 c -1.22,0.85 -2.35,1.82 -3.41,2.88 -18.51,18.51 -15.8,69.28 18.87,118.84 17.41,24.84 40.15,44.76 62.43,54.7 18.92,8.45 35.92,8.96 46.67,1.45 10.81,-7.75 16.04,-23.7 14.59,-44.35 -1.71,-24.34 -12.67,-52.54 -30.06,-77.38 -36.7,-52.38 -86.94,-71.64 -109.09,-56.14 z m 179.07,130.7 c 2.14,30.43 -5.78,55.6 -22.43,72.26 -2.81,2.8 -5.86,5.36 -9.14,7.65 -22.86,16.04 -53.37,16.85 -85.91,2.35 -29.12,-13 -57.13,-37.25 -78.88,-68.31 -47.78,-68.24 -50.63,-146.17 -5.64,-177.41 44.61,-31.24 117.01,-2.27 164.78,65.97 21.76,31.05 34.96,65.69 37.22,97.49" /><path
         id="path152"
         style="fill:#8c5620;fill-opacity:1;fill-rule:nonzero;stroke:none"
         d="m 2595.04,1382 c -52.41,-36.67 -105.98,-37.76 -121.72,-15.47 -15.5,22.15 3.75,72.4 56.14,109.09 24.84,17.39 53.04,28.35 77.38,30.07 20.66,1.46 36.8,-3.66 44.34,-14.63 7.52,-10.72 7.01,-27.72 -1.45,-46.64 -9.93,-22.28 -29.85,-45.02 -54.69,-62.42 z m 88.9,132.01 c -2.3,3.3 -4.86,6.36 -7.66,9.16 -16.66,16.66 -41.83,24.57 -72.26,22.43 -31.81,-2.25 -66.44,-15.46 -97.49,-37.22 -68.24,-47.77 -97.21,-120.17 -65.97,-164.78 31.25,-45.01 109.17,-42.13 177.41,5.64 31.06,21.75 55.31,49.76 68.31,78.88 14.5,32.54 13.68,63.05 -2.34,85.89" /><path
         id="path154"
         style="fill:#8c5620;fill-opacity:1;fill-rule:nonzero;stroke:none"
         d="m 5173.1,6016.13 c -45.7,0.02 -82.84,37.21 -82.85,82.85 l -0.02,48.63 c 0,5.3 -3.49,11.64 -7.23,15.39 -1.64,1.62 -3.11,3.38 -4.59,5.11 -0.33,0.38 -0.69,0.77 -1.05,1.13 -3.74,3.74 -8.81,5.85 -14.14,5.85 h -49.08 c -22.02,0 -42.8,8.66 -58.51,24.37 -15.7,15.7 -24.36,36.48 -24.36,58.5 0,45.68 37.18,82.86 82.87,82.86 l 121.21,-0.01 c 5.3,0 10.39,2.1 14.14,5.85 l 24.44,24.43 c 32.3,32.31 84.86,32.31 117.16,0 32.31,-32.3 32.31,-84.86 0,-117.16 l -29.27,-29.28 c -3.76,-3.76 -5.86,-8.84 -5.86,-14.15 V 6099 c 0,-45.69 -37.18,-82.87 -82.86,-82.87 z m 122.86,186.09 23.42,23.42 c 47.9,47.9 47.9,125.84 0,173.74 -47.9,47.9 -125.84,47.9 -173.74,0 l -18.57,-18.58 -112.93,0.02 c -67.76,0 -122.87,-55.11 -122.87,-122.86 0,-33.87 13.77,-64.6 36.02,-86.84 22.25,-22.25 52.98,-36.02 86.85,-36.02 h 36.1 l 0.01,-36.12 c 0,-67.73 55.13,-122.83 122.85,-122.84 67.75,0 122.86,55.1 122.86,122.86 v 103.22" /><path
         id="path156"
         style="fill:#8c5620;fill-opacity:1;fill-rule:nonzero;stroke:none"
         d="m 5145.71,6533 c -5.86,-1.58 -14.02,1.72 -22.57,10.8 -11.2,11.31 -20.63,29.05 -25.89,48.68 -5.27,19.62 -5.95,39.71 -1.91,55.11 2.99,11.35 8.28,19.07 14.14,20.63 5.82,1.56 14.16,-2.39 22.36,-10.6 0.07,-0.06 0.14,-0.13 0.21,-0.2 11.2,-11.31 20.65,-29.05 25.91,-48.67 11.05,-41.27 0.12,-72.44 -12.25,-75.75 z m 10.36,-38.64 c 38.68,10.37 56.47,65.17 40.53,124.75 -7.11,26.53 -19.94,50.13 -36.14,66.47 -0.11,0.11 -0.21,0.2 -0.32,0.32 -18.71,18.71 -40.93,26.35 -61.01,20.96 -20.19,-5.41 -35.68,-23.3 -42.47,-49.1 -5.86,-22.26 -5.17,-49.11 1.95,-75.64 7.11,-26.53 19.94,-50.13 36.14,-66.47 0.09,-0.12 0.19,-0.22 0.3,-0.33 18.71,-18.71 40.92,-26.34 61.02,-20.96" /><path
         id="path158"
         style="fill:#8c5620;fill-opacity:1;fill-rule:nonzero;stroke:none"
         d="m 5567.59,6175.34 c -15.4,-4.04 -35.49,-3.36 -55.11,1.91 -19.63,5.26 -37.37,14.69 -48.68,25.89 -8.36,8.77 -12.38,16.71 -10.8,22.57 3.31,12.37 34.48,23.3 75.75,12.25 19.62,-5.26 37.36,-14.71 48.67,-25.91 8.52,-8.41 12.37,-16.71 10.8,-22.57 -1.56,-5.86 -9.28,-11.15 -20.63,-14.14 z m 59.27,3.79 c 5.39,20.08 -2.25,42.3 -20.96,61.01 -0.12,0.11 -0.21,0.21 -0.32,0.32 -16.34,16.2 -39.94,29.03 -66.47,36.14 -59.58,15.94 -114.38,-1.85 -124.75,-40.53 -5.38,-20.1 2.25,-42.31 20.96,-61.02 0.11,-0.11 0.21,-0.21 0.33,-0.3 16.34,-16.2 39.94,-29.03 66.47,-36.14 26.53,-7.12 53.38,-7.81 75.64,-1.95 25.8,6.79 43.69,22.28 49.1,42.47" /><path
         id="path160"
         style="fill:#8c5620;fill-opacity:1;fill-rule:nonzero;stroke:none"
         d="m 5421.48,6694.69 c 1.22,-0.85 2.35,-1.82 3.41,-2.88 18.51,-18.51 15.8,-69.28 -18.88,-118.84 -17.4,-24.84 -40.14,-44.76 -62.42,-54.7 -18.92,-8.45 -35.92,-8.96 -46.67,-1.45 -10.81,7.75 -16.05,23.7 -14.6,44.35 1.72,24.34 12.68,52.54 30.07,77.38 36.69,52.39 86.94,71.64 109.09,56.14 z m -179.07,-130.7 c -2.14,-30.43 5.77,-55.6 22.43,-72.26 2.8,-2.8 5.86,-5.36 9.14,-7.65 22.86,-16.04 53.37,-16.85 85.91,-2.35 29.12,13 57.13,37.25 78.88,68.31 47.77,68.24 50.63,146.17 5.64,177.41 -44.61,31.24 -117.01,2.27 -164.78,-65.97 -21.76,-31.05 -34.97,-65.69 -37.22,-97.49" /><path
         id="path162"
         style="fill:#8c5620;fill-opacity:1;fill-rule:nonzero;stroke:none"
         d="m 5492.97,6486.01 c 52.41,36.67 105.98,37.76 121.72,15.47 15.5,-22.15 -3.75,-72.4 -56.14,-109.09 -24.84,-17.39 -53.04,-28.35 -77.38,-30.07 -20.66,-1.46 -36.8,3.66 -44.35,14.63 -7.51,10.72 -7,27.72 1.45,46.64 9.94,22.28 29.86,45.02 54.7,62.42 z M 5404.06,6354 c 2.31,-3.3 4.87,-6.36 7.67,-9.16 16.66,-16.66 41.83,-24.57 72.26,-22.43 31.8,2.25 66.44,15.46 97.49,37.22 68.24,47.77 97.21,120.17 65.97,164.78 -31.25,45.01 -109.17,42.13 -177.41,-5.64 -31.06,-21.75 -55.31,-49.76 -68.31,-78.88 -14.5,-32.54 -13.69,-63.05 2.33,-85.89" /><path
         id="path164"
         style="fill:#8c5620;fill-opacity:1;fill-rule:nonzero;stroke:none"
         d="m 5286.27,3315.02 c 41.43,19.31 90.8,1.29 110.11,-40.07 l 20.56,-44.06 c 2.24,-4.81 8.09,-9.08 13.06,-10.89 2.17,-0.79 4.25,-1.75 6.32,-2.69 0.46,-0.21 0.95,-0.41 1.42,-0.59 4.98,-1.81 10.47,-1.58 15.3,0.67 l 44.48,20.75 c 19.95,9.3 42.45,10.24 63.32,2.64 20.87,-7.59 37.5,-22.77 46.8,-42.72 19.31,-41.41 1.33,-90.82 -40.08,-110.12 l -109.86,-51.22 c -4.81,-2.24 -8.53,-6.29 -10.35,-11.28 l -11.81,-32.47 c -15.63,-42.93 -63.27,-65.14 -106.19,-49.52 -42.93,15.63 -65.15,63.26 -49.52,106.19 l 14.16,38.91 c 1.82,4.99 1.57,10.49 -0.67,15.3 l -47.13,101.05 c -19.31,41.41 -1.32,90.82 40.08,110.12 z m -32.7,-220.57 -11.33,-31.12 c -23.17,-63.65 9.77,-134.3 73.42,-157.47 63.65,-23.16 134.3,9.78 157.47,73.43 l 8.98,24.68 102.35,47.72 c 61.41,28.63 88.06,101.86 59.43,163.27 -14.31,30.69 -39.78,52.72 -69.34,63.48 -29.57,10.76 -63.24,10.26 -93.93,-4.06 l -32.72,-15.25 -15.28,32.72 c -28.62,61.38 -101.87,88.03 -163.25,59.42 -61.41,-28.63 -88.06,-101.86 -59.42,-163.27 l 43.62,-93.55" /><path
         id="path166"
         style="fill:#8c5620;fill-opacity:1;fill-rule:nonzero;stroke:none"
         d="m 5529.53,2858.16 c 4.64,3.9 13.44,4.36 25.02,-0.25 14.93,-5.52 30.98,-17.62 44.04,-33.18 13.06,-15.56 22.18,-33.47 25.02,-49.13 2.09,-11.55 0.56,-20.79 -4.1,-24.68 -4.61,-3.87 -13.84,-3.82 -24.74,0.15 -0.09,0.03 -0.19,0.07 -0.28,0.1 -14.93,5.52 -30.98,17.6 -44.05,33.16 -27.45,32.73 -30.72,65.6 -20.91,73.83 z m -25.72,30.64 c -30.67,-25.74 -23.63,-82.93 15.99,-130.19 17.66,-21.04 39.26,-37.01 60.85,-44.97 0.14,-0.05 0.27,-0.1 0.42,-0.15 24.87,-9.05 48.23,-6.58 64.16,6.78 16.01,13.44 22.48,36.19 17.74,62.45 -4.11,22.65 -16.08,46.69 -33.73,67.73 -17.66,21.04 -39.27,37.01 -60.85,44.97 -0.14,0.07 -0.27,0.12 -0.42,0.17 -24.87,9.05 -48.22,6.58 -64.16,-6.79" /><path
         id="path168"
         style="fill:#8c5620;fill-opacity:1;fill-rule:nonzero;stroke:none"
         d="m 4996.03,3004.01 c 12.25,10.18 30.74,18.04 50.75,21.56 20.01,3.53 40.08,2.48 55.06,-2.89 11.28,-4.42 18.28,-9.92 19.33,-15.89 2.22,-12.61 -21.41,-35.69 -63.48,-43.12 -20.01,-3.52 -40.07,-2.45 -55.06,2.92 -11.28,4.02 -18.27,9.91 -19.32,15.89 -1.07,5.97 3.69,14.03 12.72,21.53 z m -52.12,-28.48 c 3.6,-20.47 19.92,-37.38 44.79,-46.44 0.14,-0.05 0.27,-0.1 0.42,-0.15 21.65,-7.78 48.47,-9.43 75.51,-4.66 60.74,10.73 102.89,50.01 95.94,89.46 -3.62,20.48 -19.92,37.38 -44.79,46.43 -0.15,0.06 -0.27,0.1 -0.43,0.14 -21.65,7.78 -48.47,9.43 -75.52,4.66 -27.04,-4.76 -51.67,-15.48 -69.37,-30.2 -20.51,-17.06 -30.18,-38.65 -26.55,-59.24" /><path
         id="path170"
         style="fill:#8c5620;fill-opacity:1;fill-rule:nonzero;stroke:none"
         d="m 5347.93,2595.07 c -1.46,0.26 -2.9,0.66 -4.31,1.17 -24.59,8.95 -43.6,56.11 -33.11,115.69 5.27,29.86 17.47,57.53 33.46,75.95 13.58,15.65 28.77,23.3 41.68,21.03 13.08,-2.45 24.56,-14.69 31.97,-34.02 8.73,-22.78 10.71,-52.97 5.46,-82.84 -11.12,-62.98 -48.52,-101.66 -75.15,-96.98 z m 107.06,194.13 c -10.92,28.48 -28.73,47.96 -50.87,56.01 -3.72,1.36 -7.57,2.39 -11.52,3.07 -27.49,4.88 -55.48,-7.28 -78.84,-34.17 -20.91,-24.09 -36.05,-57.91 -42.63,-95.25 -14.46,-82.03 15.89,-153.87 69.87,-163.17 53.63,-9.46 107,47.4 121.46,129.43 6.6,37.34 3.93,74.31 -7.47,104.08" /><path
         id="path172"
         style="fill:#8c5620;fill-opacity:1;fill-rule:nonzero;stroke:none"
         d="m 5194.95,2753.98 c -32,-55.38 -80.09,-79.01 -103.78,-65.46 -23.41,13.53 -27.19,67.2 4.77,122.6 15.18,26.26 36.1,48.11 57.43,59.95 18.11,10.06 34.9,12.24 46.37,5.49 11.34,-6.54 18.06,-22.17 18.4,-42.89 0.41,-24.38 -8.04,-53.42 -23.19,-79.69 z m 24.78,157.22 c -3.48,2.02 -7.09,3.71 -10.81,5.06 -22.14,8.06 -48.3,4.59 -74.97,-10.21 -27.88,-15.48 -53.69,-42.09 -72.63,-74.93 -41.65,-72.14 -37.32,-149.99 9.85,-177.22 47.35,-27.58 116.75,7.95 158.41,80.08 18.96,32.85 29.1,68.48 28.56,100.37 -0.6,35.62 -14.23,62.92 -38.41,76.85" /><path
         id="path174"
         style="fill:#8c5620;fill-opacity:1;fill-rule:nonzero;stroke:none"
         d="m 983.832,5443.66 c -44.141,11.85 -70.387,57.38 -58.586,101.47 l 12.574,46.98 c 1.371,5.12 -0.363,12.15 -3.007,16.73 -1.153,2 -2.125,4.08 -3.11,6.12 -0.219,0.46 -0.465,0.93 -0.719,1.37 -2.648,4.58 -6.996,7.94 -12.144,9.32 l -47.41,12.7 c -21.266,5.7 -39.102,19.44 -50.203,38.67 -11.106,19.23 -14.09,41.55 -8.391,62.82 11.82,44.13 57.355,70.42 101.484,58.59 l 117.08,-31.38 c 5.13,-1.38 10.58,-0.67 15.18,1.99 l 29.92,17.28 c 39.56,22.84 90.34,9.23 113.18,-30.33 22.84,-39.56 9.24,-90.34 -30.33,-113.18 l -35.85,-20.7 c -4.61,-2.66 -7.95,-7.02 -9.32,-12.14 l -28.86,-107.71 c -11.83,-44.13 -57.36,-70.42 -101.488,-58.6 z m 166.838,147.95 28.68,16.56 c 58.66,33.87 78.84,109.16 44.97,167.82 -33.87,58.66 -109.16,78.83 -167.82,44.97 l -22.75,-13.14 -109.078,29.24 c -65.445,17.54 -132.934,-21.43 -150.469,-86.87 -8.765,-32.71 -3.418,-65.96 12.313,-93.21 15.734,-27.25 41.851,-48.5 74.562,-57.26 l 34.867,-9.35 -9.332,-34.88 c -17.527,-65.42 21.461,-132.92 86.867,-150.46 65.45,-17.53 132.94,21.43 150.47,86.88 l 26.72,99.7" /><path
         id="path176"
         style="fill:#8c5620;fill-opacity:1;fill-rule:nonzero;stroke:none"
         d="m 1091.15,5950 c -6.06,0 -13.09,5.3 -19,16.28 -7.89,13.82 -12.41,33.41 -12.41,53.72 -0.01,20.32 4.52,39.9 12.42,53.72 5.82,10.2 12.93,16.28 19,16.27 6.02,0.01 13.05,-5.97 18.85,-16.02 0.05,-0.08 0.1,-0.16 0.15,-0.25 7.89,-13.82 12.43,-33.4 12.43,-53.72 -0.01,-42.71 -18.63,-70 -31.44,-70 z m 0,-40 c 40.06,0 71.42,48.33 71.45,110.01 -0.01,27.47 -6.29,53.58 -17.71,73.56 -0.08,0.13 -0.15,0.25 -0.22,0.39 -13.24,22.92 -32.72,36.04 -53.52,36.04 -20.9,0 -40.48,-13.27 -53.72,-36.43 -11.42,-19.99 -17.7,-46.1 -17.7,-73.57 0,-27.47 6.29,-53.59 17.71,-73.56 0.06,-0.15 0.13,-0.26 0.2,-0.4 13.24,-22.92 32.71,-36.03 53.51,-36.04" /><path
         id="path178"
         style="fill:#8c5620;fill-opacity:1;fill-rule:nonzero;stroke:none"
         d="m 1406.08,5495.35 c -15.92,0.07 -35.14,5.94 -52.73,16.1 -17.59,10.16 -32.3,23.87 -40.32,37.61 -5.8,10.64 -7.63,19.35 -4.59,24.6 6.4,11.09 39.34,13.58 76.34,-7.78 17.59,-10.16 32.28,-23.87 40.3,-37.62 6.06,-10.33 7.63,-19.34 4.6,-24.59 -3.03,-5.27 -11.86,-8.38 -23.6,-8.32 z m 58.24,-11.69 c 10.4,18 8.77,41.44 -4.46,64.36 -0.08,0.14 -0.15,0.26 -0.22,0.39 -11.59,19.88 -31.07,38.38 -54.85,52.12 -53.43,30.81 -110.97,27.81 -131,-6.87 -10.39,-18.02 -8.77,-41.44 4.46,-64.36 0.08,-0.13 0.15,-0.25 0.24,-0.38 11.59,-19.87 31.07,-38.38 54.85,-52.11 23.79,-13.74 49.54,-21.36 72.56,-21.46 26.68,-0.12 47.96,10.21 58.42,28.31" /><path
         id="path180"
         style="fill:#8c5620;fill-opacity:1;fill-rule:nonzero;stroke:none"
         d="m 1399.38,6034.82 c 0.95,-1.15 1.79,-2.37 2.54,-3.67 13.09,-22.67 -2.66,-71.01 -48.99,-109.91 -23.24,-19.48 -50.36,-32.84 -74.45,-36.67 -20.46,-3.27 -37.02,0.64 -45.45,10.68 -8.44,10.28 -9.37,27.04 -2.63,46.61 7.96,23.06 25.85,47.46 49.07,66.96 49,41.1 102.52,46.7 119.91,26 z m -206.8,-79.91 c -9.94,-28.83 -8.82,-55.2 2.96,-75.6 1.98,-3.43 4.27,-6.69 6.85,-9.75 17.93,-21.41 47.19,-30.09 82.37,-24.51 31.5,5.02 64.83,21.2 93.88,45.57 63.8,53.55 86.74,128.08 51.36,169.9 -35,41.73 -112.43,32.48 -176.24,-21.07 -29.06,-24.36 -50.77,-54.4 -61.18,-84.54" /><path
         id="path182"
         style="fill:#8c5620;fill-opacity:1;fill-rule:nonzero;stroke:none"
         d="m 1414.41,5814.75 c 60.12,21.85 112.15,9.04 121.59,-16.57 9.23,-25.41 -22.37,-68.95 -82.46,-90.84 -28.5,-10.37 -58.58,-13.66 -82.53,-9.01 -20.34,3.93 -34.6,13.06 -39.05,25.6 -4.48,12.3 0.41,28.58 13.47,44.67 15.36,18.95 40.5,35.77 68.98,46.15 z m -120.03,-104.51 c 1.37,-3.79 3.05,-7.4 5.03,-10.83 11.78,-20.4 34.05,-34.56 63.99,-40.37 31.3,-6.05 68.18,-2.27 103.8,10.72 78.28,28.48 125,90.91 106.37,142.09 -18.54,51.56 -94.54,68.95 -172.82,40.47 -35.63,-12.97 -66.31,-33.75 -86.4,-58.52 -22.43,-27.67 -29.54,-57.35 -19.97,-83.56" /><path
         id="path184"
         style="fill:#8c5620;fill-opacity:1;fill-rule:nonzero;stroke:none"
         d="m 2746.17,3632.83 c -44.14,11.85 -70.38,57.38 -58.58,101.47 l 12.57,46.98 c 1.37,5.12 -0.36,12.15 -3.01,16.73 -1.15,2 -2.13,4.07 -3.11,6.13 -0.22,0.45 -0.46,0.92 -0.72,1.36 -2.64,4.59 -6.99,7.94 -12.14,9.32 l -47.41,12.7 c -21.27,5.7 -39.1,19.44 -50.21,38.67 -11.1,19.24 -14.08,41.55 -8.39,62.82 11.83,44.13 57.36,70.42 101.49,58.59 l 117.08,-31.38 c 5.13,-1.38 10.58,-0.66 15.18,1.99 l 29.92,17.28 c 39.57,22.84 90.34,9.23 113.18,-30.33 22.84,-39.56 9.24,-90.33 -30.33,-113.18 l -35.86,-20.7 c -4.6,-2.65 -7.94,-7.02 -9.31,-12.14 l -28.86,-107.71 c -11.83,-44.13 -57.36,-70.42 -101.49,-58.6 z m 166.84,147.95 28.68,16.56 c 58.66,33.87 78.84,109.16 44.97,167.82 -33.87,58.66 -109.16,78.84 -167.82,44.97 l -22.75,-13.14 -109.08,29.25 c -65.44,17.53 -132.93,-21.43 -150.47,-86.88 -8.76,-32.71 -3.42,-65.95 12.31,-93.21 15.74,-27.24 41.86,-48.5 74.57,-57.26 l 34.87,-9.35 -9.34,-34.88 c -17.53,-65.42 21.47,-132.92 86.87,-150.46 65.44,-17.53 132.93,21.43 150.47,86.88 l 26.72,99.7" /><path
         id="path186"
         style="fill:#8c5620;fill-opacity:1;fill-rule:nonzero;stroke:none"
         d="m 2853.49,4139.17 c -6.06,0 -13.09,5.3 -19,16.28 -7.89,13.82 -12.41,33.41 -12.41,53.72 -0.01,20.32 4.52,39.9 12.42,53.73 5.82,10.19 12.92,16.28 19,16.27 6.02,0 13.05,-5.98 18.85,-16.03 0.05,-0.08 0.1,-0.16 0.15,-0.25 7.89,-13.82 12.43,-33.4 12.43,-53.72 -0.01,-42.71 -18.63,-70 -31.44,-70 z m 0,-40 c 40.05,0 71.42,48.33 71.45,110.01 -0.01,27.47 -6.29,53.59 -17.71,73.56 -0.08,0.14 -0.15,0.25 -0.23,0.39 -13.23,22.92 -32.72,36.05 -53.51,36.04 -20.9,0 -40.48,-13.27 -53.72,-36.43 -11.42,-19.99 -17.7,-46.1 -17.7,-73.57 0,-27.47 6.29,-53.59 17.71,-73.56 0.06,-0.14 0.13,-0.26 0.21,-0.4 13.23,-22.92 32.71,-36.03 53.5,-36.04" /><path
         id="path188"
         style="fill:#8c5620;fill-opacity:1;fill-rule:nonzero;stroke:none"
         d="m 3168.42,3684.52 c -15.92,0.07 -35.14,5.94 -52.73,16.1 -17.59,10.16 -32.3,23.87 -40.32,37.61 -5.8,10.64 -7.63,19.35 -4.59,24.6 6.4,11.09 39.34,13.58 76.34,-7.78 17.59,-10.16 32.27,-23.87 40.3,-37.62 6.06,-10.33 7.63,-19.34 4.59,-24.59 -3.02,-5.27 -11.85,-8.38 -23.59,-8.32 z m 58.24,-11.69 c 10.4,18 8.77,41.44 -4.46,64.36 -0.08,0.14 -0.15,0.26 -0.22,0.39 -11.59,19.88 -31.07,38.38 -54.86,52.12 -53.42,30.81 -110.96,27.81 -130.99,-6.87 -10.39,-18.02 -8.77,-41.44 4.46,-64.36 0.08,-0.14 0.15,-0.25 0.24,-0.38 11.59,-19.87 31.07,-38.38 54.85,-52.11 23.79,-13.74 49.54,-21.36 72.56,-21.46 26.68,-0.12 47.96,10.21 58.42,28.31" /><path
         id="path190"
         style="fill:#8c5620;fill-opacity:1;fill-rule:nonzero;stroke:none"
         d="m 3161.72,4223.99 c 0.95,-1.14 1.79,-2.37 2.54,-3.67 13.09,-22.67 -2.67,-71.01 -48.99,-109.91 -23.24,-19.48 -50.37,-32.84 -74.45,-36.67 -20.47,-3.27 -37.02,0.64 -45.45,10.68 -8.44,10.28 -9.37,27.04 -2.63,46.61 7.96,23.06 25.85,47.47 49.07,66.96 49.01,41.11 102.52,46.7 119.91,26 z m -206.8,-79.91 c -9.94,-28.83 -8.81,-55.2 2.96,-75.6 1.99,-3.43 4.27,-6.69 6.85,-9.75 17.93,-21.41 47.19,-30.09 82.37,-24.5 31.5,5.01 64.83,21.19 93.88,45.56 63.8,53.55 86.73,128.09 51.36,169.91 -35,41.72 -112.43,32.47 -176.24,-21.08 -29.06,-24.36 -50.78,-54.4 -61.18,-84.54" /><path
         id="path192"
         style="fill:#8c5620;fill-opacity:1;fill-rule:nonzero;stroke:none"
         d="m 3176.75,4003.92 c 60.12,21.85 112.15,9.04 121.59,-16.57 9.23,-25.41 -22.37,-68.95 -82.47,-90.84 -28.49,-10.36 -58.57,-13.66 -82.52,-9.01 -20.34,3.93 -34.6,13.06 -39.05,25.6 -4.48,12.3 0.41,28.59 13.47,44.67 15.36,18.95 40.49,35.77 68.98,46.15 z m -120.03,-104.51 c 1.37,-3.79 3.05,-7.4 5.03,-10.83 11.78,-20.4 34.05,-34.56 63.99,-40.37 31.31,-6.05 68.18,-2.27 103.8,10.72 78.28,28.48 125,90.91 106.37,142.09 -18.54,51.56 -94.55,68.96 -172.82,40.47 -35.63,-12.97 -66.31,-33.75 -86.4,-58.52 -22.43,-27.67 -29.54,-57.35 -19.97,-83.56" /><path
         id="path194"
         style="fill:#ddd4ca;fill-opacity:1;fill-rule:nonzero;stroke:none"
         d="M 7618.45,4233.61 8000,3852.06 v 763.09 l -381.55,-381.54" /><path
         id="path196"
         style="fill:#f2e9e4;fill-opacity:1;fill-rule:nonzero;stroke:none"
         d="m 7979.08,5060.92 c -328.04,-328.04 -489.5,-698.44 -360.63,-827.31 70.45,-70.45 213.15,-53.88 381.55,28.95 v 818.87 c -6.98,-6.8 -13.97,-13.56 -20.92,-20.51" /><path
         id="path198"
         style="fill:#ddd4ca;fill-opacity:1;fill-rule:nonzero;stroke:none"
         d="m 7766.95,4382.1 c 38.66,-38.67 125.16,-21.91 233.05,35.94 v 468.74 C 7801.74,4666.03 7698.89,4450.16 7766.95,4382.1" /><path
         id="path200"
         style="fill:#8c5620;fill-opacity:1;fill-rule:nonzero;stroke:none"
         d="m 0,3782.55 c 138.5,71.53 297.348,189.63 449.199,341.48 328.043,328.04 498.996,688.94 381.84,806.1 L 364.348,5396.82 0,5032.47 V 3782.55" /><path
         id="path202"
         style="fill:#a37747;fill-opacity:1;fill-rule:nonzero;stroke:none"
         d="m 0,4308.31 c 179.984,136.24 324.77,315.91 419.473,524.27 l -88.567,173.41 c 86.856,172.46 105.184,319.09 33.442,390.83 C 296.305,5464.86 160.914,5451.91 0,5376.3 V 4308.31" /><path
         id="path204"
         style="fill:#8c5620;fill-opacity:1;fill-rule:nonzero;stroke:none"
         d="m 0,4499.68 c 12.7539,11.72 25.3555,23.63 37.6367,35.91 80.4493,80.45 149.0583,171.22 204.3593,270.36 l -88.633,163.01 c 78.684,129.16 106.551,235.31 62.492,279.37 C 179.254,5284.92 99.8555,5272.01 0,5221.53 v -721.85" /><path
         id="path206"
         style="fill:#ffffff;fill-opacity:1;fill-rule:nonzero;stroke:none"
         d="M 385.563,4484.65 88.5781,4187.67 c -23.4336,23.43 -61.4258,23.43 -84.85544,0 C 2.30469,4186.25 1.24609,4184.63 0,4183.11 v -75.74 c 1.24609,-1.52 2.30469,-3.14 3.72266,-4.56 14.35544,-14.35 34.17184,-19.91 52.75784,-16.68 9.4258,1.64 17.0508,-5.98 15.414,-15.41 -3.2343,-18.59 2.3282,-38.41 16.6836,-52.76 23.4299,-23.43 61.4179,-23.43 84.8519,0 23.429,23.43 23.429,61.42 0,84.85 l 296.984,296.99 c 23.43,-23.43 61.422,-23.43 84.852,0 23.429,23.43 23.429,61.42 0,84.85 -14.352,14.35 -34.168,19.92 -52.754,16.68 -9.43,-1.64 -17.055,5.99 -15.418,15.42 3.234,18.58 -2.324,38.4 -16.68,52.75 -23.434,23.43 -61.422,23.43 -84.851,0 -23.434,-23.43 -23.434,-61.42 0,-84.85" /><path
         id="path208"
         style="fill:#8c5620;fill-opacity:1;fill-rule:nonzero;stroke:none"
         d="m 7176.41,4208.88 466.69,-466.69 c 62.92,-62.93 196.2,-42.64 356.9,40.36 v 1249.92 l -823.59,-823.59" /><path
         id="path210"
         style="fill:#a37747;fill-opacity:1;fill-rule:nonzero;stroke:none"
         d="m 7537.03,5036.19 c -328.04,-328.04 -489.5,-698.44 -360.62,-827.31 71.74,-71.74 218.36,-53.42 390.82,33.44 l 173.42,-88.57 c 92.54,42.07 179.41,94.04 259.35,154.56 V 5376.3 c -143.86,-67.6 -308.12,-185.26 -462.97,-340.11" /><path
         id="path212"
         style="fill:#8c5620;fill-opacity:1;fill-rule:nonzero;stroke:none"
         d="m 7632.49,4940.73 c -246.03,-246.03 -383.74,-507.21 -307.59,-583.36 44.06,-44.06 150.21,-16.19 279.37,62.49 l 163.01,-88.63 c 83.98,46.87 161.91,103.37 232.72,168.45 v 721.85 c -107.91,-54.56 -239.72,-153.01 -367.51,-280.8" /><path
         id="path214"
         style="fill:#ffffff;fill-opacity:1;fill-rule:nonzero;stroke:none"
         d="m 8000,4107.37 v 75.74 c -18.1,-22.05 -18.1,-53.69 0,-75.74" /><path
         id="path216"
         style="fill:#8c5620;fill-opacity:1;fill-rule:nonzero;stroke:none"
         d="m 7958.36,6713.64 -37.07,9.93 -67.34,116.64 c -31.43,54.44 -101.68,73.26 -156.11,41.83 -54.44,-31.43 -73.26,-101.68 -41.84,-156.12 l 27.28,-47.23 c -1.05,-2.92 -2.06,-5.85 -2.88,-8.89 -0.18,-0.68 -0.26,-1.35 -0.43,-2.03 l -46.79,-27.01 c -54.43,-31.43 -73.25,-101.68 -41.83,-156.11 v 0 c 31.43,-54.44 101.68,-73.26 156.12,-41.84 l 107.3,61.95 44.43,-11.91 c 36.31,-9.73 73.34,-0.53 100.8,21.33 v 178.31 c -11.94,9.58 -25.96,16.95 -41.64,21.15" /><path
         id="path218"
         style="fill:#8c5620;fill-opacity:1;fill-rule:nonzero;stroke:none"
         d="m 7962.02,6364.32 c -30.49,-8.16 -43.61,-58.03 -29.32,-111.38 12.19,-45.48 40.37,-78.69 67.3,-82.47 v 183.54 c -12.39,9.5 -25.65,13.62 -37.98,10.31" /><path
         id="path220"
         style="fill:#8c5620;fill-opacity:1;fill-rule:nonzero;stroke:none"
         d="m 0,6692.49 v -178.31 c 18.4609,14.7 32.6328,35.07 39.1758,59.49 C 51.2422,6618.7 34.3047,6664.94 0,6692.49" /><path
         id="path222"
         style="fill:#8c5620;fill-opacity:1;fill-rule:nonzero;stroke:none"
         d="m 107.328,6904.66 c -39.0507,-39.05 -52.621,-88.8 -30.3046,-111.12 22.3164,-22.31 72.0626,-8.75 111.1176,30.31 39.05,39.05 52.621,88.8 30.304,111.11 -22.316,22.32 -72.062,8.75 -111.117,-30.3" /><path
         id="path224"
         style="fill:#8c5620;fill-opacity:1;fill-rule:nonzero;stroke:none"
         d="m 0,6354.01 v -183.54 c 4.65625,-0.66 9.28516,-0.53 13.7813,0.67 30.4804,8.17 43.6054,58.03 29.3125,111.38 C 34.582,6314.29 18.2461,6340.03 0,6354.01" /><path
         id="path226"
         style="fill:#8c5620;fill-opacity:1;fill-rule:nonzero;stroke:none"
         d="m 139.043,6656.7 c -4.125,-47.15 56.246,-90.96 134.844,-97.84 78.597,-6.87 145.656,25.78 149.781,72.94 4.129,47.16 -56.242,90.96 -134.844,97.84 -78.594,6.88 -145.656,-25.78 -149.781,-72.94" /><path
         id="path228"
         style="fill:#8c5620;fill-opacity:1;fill-rule:nonzero;stroke:none"
         d="m 84.1445,6451.82 c -20.0078,-42.9 21.7425,-104.71 93.2505,-138.06 71.5,-33.34 145.687,-25.59 165.695,17.31 20.008,42.9 -21.742,104.72 -93.25,138.06 -71.504,33.34 -145.692,25.59 -165.6955,-17.31" /><path
         id="path230"
         style="fill:#8c5620;fill-opacity:1;fill-rule:nonzero;stroke:none"
         d="m 7958.36,2793.56 -37.07,9.93 -67.34,116.64 c -31.43,54.44 -101.68,73.26 -156.11,41.84 -54.44,-31.43 -73.26,-101.69 -41.84,-156.12 l 27.28,-47.24 c -1.05,-2.91 -2.06,-5.85 -2.88,-8.89 -0.18,-0.67 -0.26,-1.35 -0.43,-2.02 l -46.79,-27.01 c -54.43,-31.43 -73.25,-101.68 -41.83,-156.12 v 0 c 31.43,-54.44 101.68,-73.26 156.12,-41.83 l 107.3,61.95 44.43,-11.91 c 36.31,-9.73 73.34,-0.54 100.8,21.32 v 178.31 c -11.94,9.59 -25.96,16.95 -41.64,21.15" /><path
         id="path232"
         style="fill:#8c5620;fill-opacity:1;fill-rule:nonzero;stroke:none"
         d="m 7962.02,2444.25 c -30.49,-8.17 -43.61,-58.04 -29.32,-111.38 12.19,-45.48 40.37,-78.7 67.3,-82.48 v 183.55 c -12.39,9.49 -25.65,13.61 -37.98,10.31" /><path
         id="path234"
         style="fill:#8c5620;fill-opacity:1;fill-rule:nonzero;stroke:none"
         d="M 0,2772.41 V 2594.1 c 18.4609,14.71 32.6328,35.08 39.1758,59.49 12.0664,45.04 -4.8711,91.28 -39.1758,118.82" /><path
         id="path236"
         style="fill:#8c5620;fill-opacity:1;fill-rule:nonzero;stroke:none"
         d="m 107.328,2984.58 c -39.0507,-39.05 -52.621,-88.8 -30.3046,-111.12 22.3164,-22.31 72.0626,-8.74 111.1176,30.31 39.05,39.05 52.621,88.8 30.304,111.12 -22.316,22.31 -72.062,8.75 -111.117,-30.31" /><path
         id="path238"
         style="fill:#8c5620;fill-opacity:1;fill-rule:nonzero;stroke:none"
         d="m 0,2433.94 v -183.55 c 4.65625,-0.65 9.28516,-0.53 13.7813,0.67 30.4804,8.17 43.6054,58.04 29.3125,111.39 C 34.582,2394.22 18.2461,2419.96 0,2433.94" /><path
         id="path240"
         style="fill:#8c5620;fill-opacity:1;fill-rule:nonzero;stroke:none"
         d="m 139.043,2736.63 c -4.125,-47.16 56.246,-90.97 134.844,-97.84 78.597,-6.88 145.656,25.78 149.781,72.94 4.129,47.15 -56.242,90.96 -134.844,97.84 -78.594,6.87 -145.656,-25.78 -149.781,-72.94" /><path
         id="path242"
         style="fill:#8c5620;fill-opacity:1;fill-rule:nonzero;stroke:none"
         d="m 84.1445,2531.75 c -20.0078,-42.91 21.7425,-104.72 93.2505,-138.06 71.5,-33.35 145.687,-25.6 165.695,17.31 20.008,42.9 -21.742,104.71 -93.25,138.06 -71.504,33.34 -145.692,25.59 -165.6955,-17.31" /><path
         id="path244"
         style="fill:#8c5620;fill-opacity:1;fill-rule:nonzero;stroke:none"
         d="m 0,1166.96 v -80.02 l 259.285,-449.1 c 5.524,-9.57 17.75,-12.84 27.32,-7.32 47.747,27.57 109.04,11.152 136.606,-36.598 13.355,-23.133 16.891,-50.082 9.977,-75.891 -6.911,-25.789 -23.45,-47.359 -46.583,-60.722 -29.062,-16.778 -64.414,-17.86 -94.55,-2.868 -6.098,2.969 -13.11,2.758 -18.903,-0.601 -5.789,-3.34 -9.547,-9.371 -9.964,-16.051 -2.114,-33.629 -20.727,-63.699 -49.793,-80.48 -23.129,-13.348 -50.079,-16.887 -75.872,-9.981 -25.808,6.914 -47.3746,23.453 -60.7339,46.582 -27.5625,47.77 -11.1407,109.039 36.6059,136.61 9.566,5.519 12.843,17.75 7.32,27.32 L 0,766.922 V 686.898 L 76.7773,553.922 C 22.9766,511.621 6.95313,434.91 42.1523,373.91 60.8516,341.531 91.043,318.371 127.172,308.691 c 36.109,-9.671 73.836,-4.722 106.223,13.981 32.96,19.027 56.316,50.258 65.582,86.418 0.527,-0.141 1.035,-0.281 1.543,-0.41 35.503,-9.508 73.597,-4.778 106.085,13.992 32.387,18.699 55.543,48.898 65.219,85.008 9.68,36.121 4.723,73.851 -13.976,106.242 -35.203,60.969 -109.703,85.457 -173.2,60.008 L 0,1166.96" /><path
         id="path246"
         style="fill:#8c5620;fill-opacity:1;fill-rule:nonzero;stroke:none"
         d="m 7740.71,1216.02 c -5.52,9.57 -17.75,12.84 -27.31,7.32 -47.75,-27.57 -109.04,-11.15 -136.61,36.6 -13.36,23.13 -16.89,50.08 -9.98,75.89 6.91,25.79 23.45,47.36 46.58,60.72 29.07,16.8 64.44,17.85 94.55,2.87 1.22,-0.59 2.47,-1.07 3.73,-1.4 5.08,-1.36 10.54,-0.68 15.18,2 5.79,3.34 9.55,9.37 9.96,16.05 2.12,33.63 20.73,63.7 49.79,80.48 23.13,13.36 50.08,16.89 75.88,9.98 25.8,-6.91 47.37,-23.45 60.73,-46.58 27.56,-47.77 11.14,-109.04 -36.6,-136.61 -9.57,-5.52 -12.85,-17.75 -7.32,-27.32 L 8000,1086.94 v 80.02 l -76.78,132.98 c 53.8,42.3 69.82,119.01 34.63,180.01 -18.7,32.38 -48.89,55.54 -85.02,65.22 -36.11,9.67 -73.84,4.72 -106.22,-13.98 -32.97,-19.03 -56.32,-50.26 -65.58,-86.42 -0.53,0.14 -1.04,0.28 -1.55,0.41 -35.51,9.51 -73.6,4.78 -106.09,-13.99 -32.38,-18.7 -55.54,-48.9 -65.21,-85.01 -9.68,-36.12 -4.73,-73.85 13.97,-106.24 35.19,-60.97 109.69,-85.44 173.2,-60.01 L 8000,686.898 v 80.024 l -259.29,449.098" /><path
         id="path248"
         style="fill:#cafb8a;fill-opacity:1;fill-rule:nonzero;stroke:none"
         d="m 2186.32,7802.01 c -46.86,46.86 -122.84,46.86 -169.7,0 -46.87,-46.87 -46.87,-122.84 0,-169.71 29.53,-29.53 70.61,-40.41 108.69,-32.72 -7.68,-38.08 3.2,-79.17 32.73,-108.7 46.86,-46.86 122.84,-46.86 169.71,0 46.86,46.87 46.86,122.85 0,169.71 L 2667.16,8000 h -282.85 l -197.99,-197.99" /><path
         id="path250"
         style="fill:#cafb8a;fill-opacity:1;fill-rule:nonzero;stroke:none"
         d="m 2723.72,509.121 c -46.86,-46.871 -46.86,-122.851 0,-169.711 L 2384.31,0 h 282.85 l 197.99,197.992 c 46.86,-46.863 122.84,-46.863 169.7,0 46.87,46.86 46.87,122.84 0,169.707 -29.53,29.531 -70.61,40.41 -108.7,32.723 7.69,38.078 -3.19,79.16 -32.72,108.699 -46.87,46.859 -122.84,46.859 -169.71,0" /><path
         id="path252"
         style="fill:#8c5620;fill-opacity:1;fill-rule:nonzero;stroke:none"
         d="M 895.52,55.5391 872.766,42.4102 763.688,71.6484 C 703.52,87.7695 641.73,56.0703 618.512,0 h 45.261 c 19.364,27.9805 54.86,42.3203 89.563,33.0195 L 870.422,1.62891 c 5.121,-1.367191 10.57,-0.66016 15.176,2 L 915.52,20.9023 C 951.727,41.8125 997.258,32.1094 1022.24,0 h 46.51 c -1.63,3.57031 -3.41,7.10938 -5.42,10.582 -33.86,58.6602 -109.154,78.8282 -167.81,44.9571" /><path
         id="path254"
         style="fill:#8c5620;fill-opacity:1;fill-rule:nonzero;stroke:none"
         d="m 911.16,200.859 c -7.89,13.832 -12.406,33.411 -12.41,53.731 0,20.32 4.527,39.89 12.422,53.719 5.82,10.191 12.926,16.281 19,16.273 6.019,0 13.055,-5.973 18.855,-16.023 0.051,-0.09 0.098,-0.168 0.149,-0.25 7.89,-13.829 12.426,-33.399 12.429,-53.719 -0.007,-42.719 -18.628,-70 -31.437,-70 -6.066,-0.008 -13.094,5.301 -19.008,16.269 z m 90.45,53.731 c 0,27.469 -6.29,53.59 -17.708,73.558 -0.078,0.141 -0.144,0.262 -0.222,0.391 -13.235,22.922 -32.719,36.051 -53.512,36.043 -20.906,0 -40.488,-13.273 -53.727,-36.434 -11.418,-19.988 -17.703,-46.097 -17.695,-73.566 0.004,-27.461 6.285,-53.582 17.703,-73.551 0.067,-0.152 0.133,-0.269 0.211,-0.402 13.235,-22.918 32.711,-36.039 53.512,-36.047 40.047,0.008 71.408,48.34 71.438,110.008" /><path
         id="path256"
         style="fill:#8c5620;fill-opacity:1;fill-rule:nonzero;stroke:none"
         d="m 1072.04,129.828 c -8.44,10.281 -9.37,27.051 -2.62,46.621 7.95,23.063 25.84,47.461 49.07,66.961 49,41.102 102.51,46.692 119.9,25.988 0.95,-1.136 1.8,-2.367 2.55,-3.668 13.08,-22.667 -2.67,-71 -49,-109.898 -23.23,-19.492 -50.36,-32.852 -74.45,-36.672 -20.46,-3.269 -37.02,0.629 -45.45,10.668 z m 145.61,-4.629 c 63.81,53.551 86.74,128.09 51.36,169.91 -35,41.723 -112.43,32.473 -176.23,-21.078 -29.06,-24.351 -50.78,-54.39 -61.19,-84.531 -9.94,-28.84 -8.81,-55.211 2.97,-75.598 1.98,-3.441 4.27,-6.703 6.85,-9.761 17.93,-21.4027 47.18,-30.0824 82.36,-24.5004 31.5,5.0117 64.83,21.1914 93.88,45.5584" /><path
         id="path258"
         style="fill:#8c5620;fill-opacity:1;fill-rule:nonzero;stroke:none"
         d="M 1412.59,46.4297 C 1394.05,98 1318.04,115.391 1239.76,86.9102 1204.13,73.9414 1173.46,53.1602 1153.36,28.3906 1145.83,19.082 1140.17,9.55078 1136.15,0 h 45.91 c 0.79,1.05859 1.52,2.12891 2.39,3.19141 15.35,18.94919 40.49,35.75779 68.98,46.14059 60.11,21.8477 112.14,9.0391 121.58,-16.5625 3.34,-9.1797 1.27,-20.7304 -5.47,-32.7695 h 43.39 c 4.82,15.6914 5.08,31.5391 -0.34,46.4297" /><path
         id="path260"
         style="fill:#8c5620;fill-opacity:1;fill-rule:nonzero;stroke:none"
         d="m 1028.69,7990.58 c 22.85,-39.57 9.24,-90.34 -30.323,-113.18 l -35.855,-20.7 c -4.606,-2.66 -7.946,-7.03 -9.321,-12.15 l -28.859,-107.71 c -11.82,-44.13 -57.355,-70.41 -101.484,-58.59 -44.141,11.84 -70.387,57.38 -58.586,101.47 l 12.57,46.98 c 1.375,5.12 -0.359,12.14 -3.008,16.73 -1.152,2 -2.125,4.07 -3.105,6.12 -0.223,0.46 -0.469,0.93 -0.719,1.37 -2.648,4.58 -6.996,7.93 -12.145,9.31 l -47.41,12.7 c -21.265,5.7 -39.101,19.45 -50.207,38.68 -11.101,19.23 -14.086,41.55 -8.39,62.82 2.527,9.42 6.664,17.97 11.925,25.57 h -45.261 c -2.035,-4.92 -3.883,-9.95 -5.297,-15.22 -8.766,-32.71 -3.414,-65.96 12.316,-93.21 15.735,-27.25 41.852,-48.5 74.563,-57.27 l 34.867,-9.34 -9.332,-34.89 c -17.527,-65.42 21.461,-132.91 86.867,-150.45 65.442,-17.54 132.934,21.43 150.469,86.87 l 26.719,99.71 28.686,16.56 c 55.19,31.87 76.28,100.39 50.38,157.24 h -46.51 c 2.31,-2.97 4.52,-6.07 6.45,-9.42" /><path
         id="path262"
         style="fill:#8c5620;fill-opacity:1;fill-rule:nonzero;stroke:none"
         d="m 1192.36,7746.04 c -17.59,10.16 -32.29,23.86 -40.32,37.61 -5.8,10.63 -7.63,19.34 -4.59,24.59 6.4,11.1 39.34,13.58 76.34,-7.77 17.6,-10.16 32.28,-23.88 40.31,-37.62 6.05,-10.33 7.62,-19.35 4.59,-24.6 -3.03,-5.26 -11.85,-8.37 -23.59,-8.32 -15.92,0.08 -35.14,5.95 -52.74,16.11 z m 106.51,36.57 c -0.07,0.14 -0.14,0.25 -0.22,0.39 -11.59,19.88 -31.07,38.38 -54.85,52.11 -53.42,30.82 -110.96,27.82 -130.99,-6.86 -10.39,-18.02 -8.78,-41.45 4.46,-64.37 0.07,-0.13 0.14,-0.25 0.24,-0.37 11.58,-19.88 31.06,-38.38 54.85,-52.12 23.78,-13.74 49.54,-21.35 72.56,-21.46 26.68,-0.11 47.96,10.21 58.41,28.32 10.4,18 8.78,41.44 -4.46,64.36" /><path
         id="path264"
         style="fill:#8c5620;fill-opacity:1;fill-rule:nonzero;stroke:none"
         d="m 1292.55,7941.93 c -28.5,-10.37 -58.58,-13.66 -82.53,-9.02 -20.33,3.93 -34.6,13.06 -39.05,25.61 -4.18,11.48 -0.1,26.44 11.09,41.48 h -45.91 c -7.95,-18.86 -9.11,-37.78 -2.76,-55.18 1.38,-3.78 3.05,-7.39 5.04,-10.82 11.77,-20.4 34.04,-34.56 63.98,-40.37 31.31,-6.06 68.18,-2.27 103.81,10.72 55.49,20.19 94.97,57.44 106.71,95.65 h -43.39 c -11.92,-21.29 -38.6,-44.1 -76.99,-58.07" /></g></g></svg>